<?xml version="1.0" encoding="utf-8"?>
<!-- Generator: Adobe Illustrator 20.1.0, SVG Export Plug-In . SVG Version: 6.00 Build 0)  -->
<svg version="1.1" id="Layer_1" xmlns="http://www.w3.org/2000/svg" xmlns:xlink="http://www.w3.org/1999/xlink" x="0px" y="0px"
	 viewBox="0 0 1324.1 596.4" style="enable-background:new 0 0 1324.1 596.4;" xml:space="preserve">
<style type="text/css">
	.st0{fill:#5E2D00;}
	.st1{fill:#76370E;}
	.st2{fill:#7E441E;}
	.st3{fill:#B26F49;}
	.st4{fill:#2B1300;}
	.st5{fill:#351800;}
</style>
<g>
	<g>
		<path class="st0" d="M1252.7,194.4c22.8-50.2-19.8-102-42.8-82.2c-3-57.9-61-61.3-71.8-48.9c-7.2-61.7-66.9-46.6-79.6-11.9
			c-8.4,25.7-171.6,70.3-199.1,60.2c-40.6-52.4-91.4-33.2-112.6,5.6c-22.1-65.2-88.7-43-99.8,6.3c-23.4-64-94.4-44.5-105.2-18.2
			c-18.2-27.6-36.1-56.8-75.2-21.3c-34.4,43.9-217.8-50.8-217.8-50.8c-44.4-50-88,6.3-90.5,36.4c-51-24-106.4,62.9-52.1,92.8
			c-16.9,43.7-5.4,99.1,28.5,79.7c-3,16.3,6.9,91,40.8,77.2c-14.1,38.3,14.7,90.5,62.4,46.4c1.5,63.4,77.2,79.7,98.8,31.4
			c6.6,78.4,71.1,88.9,95.4,44.5c18.4,51.4,68.3,45.6,69.2,7.9c32.8,41,61,7.5,62.1-24.3c29.7,51.4,65.4,32.6,83.1,2.5
			c12.1,27.2,70.8,16.9,85.5-11.3c9.5,39.3,79.1,40.1,106.7-2.5c26.1,18.8,68.3,20.1,78.7-1.3c13.9,29.7,40.8,37,53.6,16.3
			c22.6,20.1,44.2-13.2,45.2-28.9c32.8,46.8,77,8.8,75.7-38.9c26.9,21.3,52.4,8.8,56.5-23.8c32.6,15.5,50.1-32.2,41.8-67.5
			c6.9-9,8.4-29.7,15.7-10.3C1254.5,355.4,1316.4,206.9,1252.7,194.4z"/>
		<path class="st1" d="M1168.9,160.8c3.3-30.5-18.7-25.6-41.6-20.4c33.4-31.8-28-127.2-68.8-89.1c-8.4,25.7-171.6,70.2-199.1,60.2
			c-40.6-52.4-91.4-33.2-112.6,5.6c-22.1-65.2-88.7-43-99.8,6.3c-23.4-64-94.4-44.5-105.2-18.2c-18.2-27.6-36.1-56.8-75.2-21.3
			c-34.4,43.9-217.8-50.8-217.8-50.8c-44.4-50-88,6.3-90.5,36.4c-8.1-3.8-16.2-4.8-24.1-3.7c-33.9,8.1-33.4,99.7,27.5,72.1
			c-39.3,56.1,4.9,162.5,57,80.3C199.9,311,307.3,393.8,376.1,311c3.2,77.8,236,71.1,241.9-7.5c20.6,92.8,92.1,80.3,116-7.5
			c3.3,95.8,76,89.1,110.1-10c-5.8,85.8,53.3,85.4,86.5,40.1c11.8,11.9,26.3-7.4,28.3-24.7c33.3,87.4,107.7,60.5,99.5-18
			c8.3,59.4,81,29.7,72.8-62.7C1196,233.1,1199.8,185.8,1168.9,160.8z"/>
		<path class="st2" d="M1084.1,153c51.4-36.7,1.2-108.8-26.7-99.4c-16.4,26-171.3,67.8-198,58c-40.6-52.4-91.4-33.2-112.6,5.6
			c-22.1-65.2-88.7-43-99.8,6.3c-23.4-64-94.4-44.5-105.2-18.2c-18.2-27.6-36.1-56.8-75.2-21.3c-34.4,43.9-217.8-50.8-217.8-50.8
			c-41.4-46.6-82.1-0.8-89.4,30c-12.4,77.7,55.4,165.5,87,94.8c-22.9,120.6,86.7,176.9,125.9,75.3c-11.1,49.8,12.8,66.9,37.4-15.1
			c-3,118.3,45.6,88.7,59,45.2c-5.4,87.2,103.2,50.2,98.3-25.1c11.1,69,57.4,40.3,39.3-30.1c50.1,168.5,122.4,96.6,120,7.5
			c13.6,74,52.6,62.9,47.2,7.5c5.6,88.4,46.9,75.3,35.4,0c7.5,45.4,39.3,34.3,37.4,0c16.6,105.4,100.6,96.2,86.5-22.6
			c12.5,133.8,136.7,77.9,104.2-10c9.8,20.1,21.9,25.3,39.6,5.2C1104.7,241.4,1136.7,162.1,1084.1,153z"/>
		<path class="st3" d="M773.7,228.4c-0.1-1.7-0.2-3.4-0.4-5.2C773.5,225,773.6,226.7,773.7,228.4z"/>
		<path class="st3" d="M859.4,111.6c-40.6-52.4-91.4-33.2-112.6,5.6c-22.1-65.2-88.7-43-99.8,6.3c-23.4-64-94.4-44.5-105.2-18.2
			c-18.2-27.6-36.1-56.8-75.2-21.3c-34.4,43.9-217.8-50.8-217.8-50.8c-41.4-46.6-82.1-0.8-89.4,30c0,0.2-0.1,0.4-0.1,0.6
			c8.3-22.5,55.4-60.5,72-21.1c11.8,15.1,50.5,45,64.2,52.5c51.1,25.1,110.1,27.6,163.2,7.5c24.1-28.2,54.1-24.5,81.5,28.1
			c27.5-45.2,78.3-54.3,111.3,22c6.2-52.9,70.8-83.6,92.9-13.8c30-56.1,89-44.6,111.7-4c21.6,12.5,39.3,10.3,58.9-27.4
			c0.1-0.1,0.1-0.3,0.2-0.4C889.3,112.6,867.9,114.7,859.4,111.6z"/>
		<path class="st4" d="M1254.2,193.4c8.1-18.9,7.9-40.2-0.5-58.8c-7.6-16.8-20.6-28-32.5-28c-3.8,0-7.4,1.2-10.5,3.4
			c-3.1-42.4-35.2-53.9-53.9-53.9c-7.7,0-14.3,1.8-18.1,4.8c-3.6-25.8-17.6-41.1-37.6-41.1c-18.4,0-37.2,13.3-43.7,31
			c-7,21.6-136.6,60.9-186.4,60.9c-4.9,0-8.7-0.4-11.3-1.3c-16.4-21-35.7-32.2-55.9-32.2c-22.3,0-44,13.9-56.9,36.4
			c-9.1-24.9-26-39.2-46.7-39.2c-23.9,0-46.4,19-53.5,44.6c-10.5-26-31-40.9-56.7-40.9c-20.9,0-41.8,10.4-48.5,23.9l-0.2-0.3
			c-11.8-17.9-24-36.5-42.3-36.5c-10,0-20.8,5.4-33.3,16.7c-5.8,7.5-16.7,11.2-32.3,11.2c-61.9,0-179.3-59.7-184.2-62.3
			C237.4,18.8,224.8,12,211.8,12c-28.2,0-51.5,32.8-54.3,55.8c-5.6-2.5-11.4-3.7-17.4-3.7c-28.6,0-52.4,27.6-56.5,53.4
			c-3.1,19.3,4.6,35.8,21.3,45.5c-9.2,24.7-9.9,53.6-1.6,70.7c6.4,13.1,17.3,17,30.1,10.4c-1.1,12.8,2.5,45.7,14.3,64.5
			c7.1,11.4,16,15.7,26.1,12.5c-4.6,14.5-3.6,31,2.8,43.7c6,12.1,15.7,18.8,27.3,18.8c10.4,0,21.5-5.3,33.2-15.7
			c2,37.9,30.4,58.3,56.7,58.3c18.3,0,33.9-9.5,42.4-25.6c5.1,47.1,31.3,68.2,55.5,68.2c16.2,0,31.1-9.3,40.3-24.9
			c10.2,26.6,28.2,36.2,41.9,36.2c15.5,0,26.9-11.4,28.3-27.9c9.7,11.5,19.8,17.5,29.4,17.5c18.3,0,30.7-20.8,32.6-41.1
			c12,19.7,26.1,30,40.9,30c14.9,0,30.3-10.7,41.3-28.7c5.1,9.5,16.6,15,31.8,15c18.7,0,43.3-9,53.5-25.8
			c5.4,17.4,22.9,28.1,46.2,28.1c19.4,0,45.5-8.3,61-31.6c12.6,8.8,29.3,14.1,45,14.1c15.9,0,27.9-5.3,33.4-14.6
			c8.3,16.7,21.3,27,34.2,27c7.8,0,14.8-4,19.6-11.3c4.6,3.9,9.5,5.8,14.4,5.8c16.1,0,29-20.5,31.3-33.6c9.7,13,20.9,19.8,32.6,19.8
			c11,0,21.6-6,29.9-17c8.6-11.4,13.5-26.7,13.5-42.3c8.4,6.3,17,9.6,25,9.6c16.3,0,28.2-13,31.3-34c13.9,6.1,26.6,1.1,35-13.4
			c8.5-14.6,11.3-36.8,7.1-55.5c2.1-2.9,3.6-6.7,5-10.1c1.5-3.6,3-7.3,4.3-7.3c0.6,0,2,1,4.5,7.5c13.6,26.9,27.3,32.6,36.3,32.6
			c21.2,0,37.7-29.4,39.2-55.7C1282.1,213.9,1272.2,197.7,1254.2,193.4z M1278.8,237c-1.5,25.3-17.2,53.4-37.3,53.4
			c-12.3,0-24.3-10.9-34.6-31.3c-2.3-6.1-4.2-8.8-6.2-8.8c-2.5,0-4,3.8-6,8.7c-1.4,3.4-3,7.3-5.1,10l-0.4,0.5l0.2,0.7
			c4.3,18.1,1.6,39.8-6.6,54c-4,6.8-11,14.9-22,14.9c-3.8,0-7.8-1-11.9-2.9l-1.1-0.5l-0.2,1.5c-2.6,20.6-13.9,33.3-29.5,33.3
			c-8.1,0-17-3.6-25.5-10.4l-1.6-1.2l0.1,2.4c0.4,15.7-4.3,31.3-12.9,42.7c-7.9,10.4-18,16.2-28.5,16.2c-11.7,0-23-7.2-32.6-20.9
			l-1.5-2.2l-0.2,2.9c-0.7,11.6-13.7,34-29.6,34c-4.8,0-9.5-2-14-6l-0.8-0.7l-0.6,0.9c-4.5,7.3-11.1,11.3-18.7,11.3
			c-12.6,0-25.3-10.5-33.3-27.5l-0.8-1.8l-0.9,1.8c-4.6,9.6-16.5,15.1-32.6,15.1c-15.7,0-32.4-5.3-44.7-14.3l-0.7-0.5l-0.5,0.8
			c-15,23.3-40.8,31.5-60,31.5c-23.1,0-40.8-11.2-45-28.6l-0.6-2.5l-1.1,2.2c-9,17.3-34.1,26.6-53,26.6c-15.3,0-26.5-5.6-30.9-15.3
			l-0.7-1.7l-0.9,1.5c-10.7,18.2-25.9,29.1-40.6,29.1c-14.8,0-29-10.9-40.9-31.6l-1.6-2.9l-0.1,3.5c-0.7,20.2-12.7,42.1-30.9,42.1
			c-9.6,0-19.8-6.4-29.6-18.6l-1.6-2l-0.1,2.9c-0.4,16.6-11.3,28.2-26.5,28.2c-13.4,0-31.1-9.6-40.8-36.7l-0.7-2l-1,1.8
			c-8.8,16-23.6,25.6-39.7,25.6c-23.9,0-49.9-21.5-53.9-69.5l-0.3-3.9l-1.5,3.4c-7.7,17.2-23.5,27.4-42.2,27.4
			c-25.9,0-53.9-20.4-54.8-58.2l-0.1-2.4l-1.5,1.4c-11.9,11-23.2,16.6-33.5,16.6c-10.9,0-19.9-6.3-25.6-17.7
			c-6.4-12.8-7.1-29.6-1.8-43.8l1-2.6l-2.1,0.9c-10.1,4.1-18.9,0.4-26-11c-12-19.2-15.4-54.8-13.6-64.7l0.4-2.5l-1.8,1
			c-12.6,7.2-23.2,4.1-29.3-8.5c-8.1-16.7-7.3-45.2,2.1-69.5l0.5-1.2l-0.9-0.5C90,152.1,82.5,136.7,85.6,118
			c4-24.8,26.9-51.4,54.6-51.4c6.1,0,12.1,1.4,17.8,4.1l1.2,0.6l0.1-1.6c1.8-22.2,24.6-55.2,52.5-55.2c12.6,0,24.8,6.6,36.3,19.6
			l0.3,0.2c1.2,0.6,121.8,62.5,185.1,62.5c16.1,0,27.5-4,33.6-11.8c12-10.9,22.4-16.1,32-16.1c17.4,0,29.3,18.1,40.8,35.6l2,3.1
			l0.7-1.7c5.5-13.5,26.4-24.1,47.5-24.1c15.1,0,42.5,5.5,56,42.2l1.1,3l0.7-3.2c5.9-26.1,28.4-45.8,52.4-45.8
			c20.4,0,37,14.5,45.6,39.7l0.7,2.1l1-1.9c12.4-22.9,34-37.1,56.3-37.1c19.8,0,38.7,10.9,54.7,31.6l0.2,0.2l0.2,0.1
			c2.7,1,6.8,1.5,12.1,1.5c47.4,0,180.4-38.3,188.2-62.4c6.2-16.8,24.2-29.5,41.9-29.5c9.4,0,31.6,4,35.9,41l0.3,2.3l1.4-1.5
			c3-3.4,9.9-5.5,18.1-5.5c18.3,0,49.9,11.3,52,53.6l0.1,2.2l1.4-1.2c3.2-2.7,6.8-4.1,10.8-4.1c11.2,0,23.5,10.8,30.8,26.8
			c8.3,18.3,8.2,39.4-0.2,57.8l-0.7,1.6l1.4,0.3C1278.2,200.7,1279.4,226.2,1278.8,237z"/>
	</g>
	<g>
		<ellipse class="st0" cx="434.5" cy="560.6" rx="19.7" ry="25.1"/>
		<path class="st2" d="M434.5,535.5c-10.9,0-19.7,11.2-19.7,25.1c0,4.2,0.8,8.2,2.3,11.6c1.7,3.4,3.8,6.3,6.6,8.4
			c7.9,5,13.8-7.5,7.9-17.6c15.7,11.6,27.2-8.8,14.1-23.2C442.5,537.1,438.7,535.5,434.5,535.5z"/>
		<path class="st4" d="M434.5,534.2c-11.4,0-20.6,11.8-20.6,26.3s9.3,26.3,20.6,26.3c11.4,0,20.6-11.8,20.6-26.3
			S445.9,534.2,434.5,534.2z M434.5,584.4c-10.3,0-18.7-10.7-18.7-23.8c0-13.1,8.4-23.8,18.7-23.8c10.3,0,18.7,10.7,18.7,23.8
			C453.2,573.7,444.8,584.4,434.5,584.4z"/>
	</g>
	<g>
		<ellipse class="st0" cx="355" cy="563.6" rx="30.8" ry="29.3"/>
		<path class="st2" d="M365.6,536.2c-3.3-1.2-6.9-1.8-10.6-1.8c-17,0-30.8,13.1-30.8,29.3c0,0.8,0.1,1.5,0.1,2.3
			c3.4,15.6,20.8,15.8,26.4,1.5c2,12.5,17,8,20.9,0.5C377.1,557.3,372.7,543.9,365.6,536.2z"/>
		<path class="st4" d="M355,533.1c-17.5,0-31.8,13.7-31.8,30.5s14.3,30.5,31.8,30.5c17.5,0,31.8-13.7,31.8-30.5
			S372.5,533.1,355,533.1z M355,591.6c-16.4,0-29.8-12.6-29.8-28s13.4-28,29.8-28c16.4,0,29.8,12.6,29.8,28S371.5,591.6,355,591.6z"
			/>
	</g>
	<g>
		<path class="st3" d="M524.8,181.1l50.6,13.4l6.2-3.9C564.3,148.4,529.8,168.2,524.8,181.1z"/>
		<path class="st2" d="M524.8,181.1l15.5,17l35.1-3.6C558,158,529.4,174.6,524.8,181.1z"/>
		<path class="st4" d="M550.3,163.5c-6.8,0.1-13.4,2.8-18.5,6.4c-0.3,0.2-0.5,0.3-0.7,0.5c-7.4,6.5-6.2,10.7-6.2,10.7
			c2.3-6,12.7-14.8,25.5-15.1c9.1-0.2,21.7,4,30.4,25.2l1.7-1.2C573.3,167.7,560,163.2,550.3,163.5z"/>
	</g>
	<g>
		<path class="st3" d="M569.6,203.2l102.9,15.5C650.2,146.7,592.2,172.2,569.6,203.2z"/>
		<path class="st2" d="M569.6,203.2l56.5,12.3l46.4,3.2C647,161.1,586.3,186.4,569.6,203.2z"/>
		<path class="st4" d="M666.3,198.6c-8-14.6-18.8-23.8-31.9-27c-20.3-4.9-42.8,5.7-57.8,20.2c-0.1,0.1-0.3,0.2-0.4,0.4
			c-5.6,5.9-6.6,11-6.6,11c13.5-18.4,40.6-34.9,64.5-29.1c17.4,4.2,30.6,19.6,38.4,44.6c0,0-0.3-8.6-5.7-19.2
			C666.7,199.2,666.5,198.9,666.3,198.6z"/>
	</g>
	<g>
		<path class="st3" d="M735.2,187.4l68.1,0.1C785.3,147.8,747,156.5,735.2,187.4z"/>
		<path class="st2" d="M735.2,187.4l35.4,8.2l32.7-8.2C780.1,154.1,749.5,168.7,735.2,187.4z"/>
		<path class="st4" d="M796,171.9c-7.7-8.8-17.4-13.4-28-12.9c-10.4,0.5-20.2,5.9-27.2,14.5c-0.2,0.3-0.4,0.5-0.6,0.8
			c-5.3,7.3-4.9,13.1-4.9,13.1c5.7-15.1,18.6-25.2,32.8-25.9c14.6-0.6,27.5,8.8,35.3,25.9c0,0-0.7-7-6.9-15.1
			C796.3,172.2,796.2,172.1,796,171.9z"/>
	</g>
	<g>
		<path class="st5" d="M1152.2,238.9l-10.5,51.1c12-1.9,19.4-6.9,16.5-30.1c25.8,34.8,73.5,0.3,52.1-46.1L1152.2,238.9z"/>
		<path class="st0" d="M1149,234.5l-7.2,55.5c12-1.9,14.4-17.6,11.4-40.8c25.8,34.8,71.5,5.3,57.2-35.4L1149,234.5z"/>
		<path class="st4" d="M1210.3,213.8c10.4,22.6,3.6,40.8-6.3,50.2c-11.7,11.2-31.5,13.3-45-5l-2.2-3l0.5,4
			c1.3,10.3,0.6,17.6-2.2,22.3c-2.5,4.2-6.6,6.6-13.5,7.6c0,0,4.2,2.5,10.6-1.3c0.2-0.1,0.5-0.3,0.7-0.5c1.5-1.2,2.7-2.6,3.7-4.3
			c2.7-4.7,3.7-11.4,2.9-20.5c14.2,16.5,33.8,14,45.6,2.7c6.9-6.6,12.8-18.1,12.1-32.4c0-0.4,0-0.8-0.1-1.1
			C1216.1,219.8,1210.3,213.8,1210.3,213.8z"/>
	</g>
	<g>
		<ellipse class="st0" cx="1295.7" cy="337.1" rx="14.5" ry="18.5"/>
		<path class="st2" d="M1295.7,318.6c-8,0-14.5,8.3-14.5,18.5c0,1.7,0.2,3.2,0.5,4.8c4.6,7,9.9,10.5,12.8,4.3
			c3.9-12.5,7.9-2.5,11.8-15.1c0.7-1.8,1-3.5,1-5.1C1304.7,321.5,1300.4,318.6,1295.7,318.6z"/>
		<path class="st4" d="M1295.7,317.3c-8.5,0-15.5,8.9-15.5,19.8c0,10.9,6.9,19.8,15.5,19.8c8.5,0,15.5-8.9,15.5-19.8
			C1311.2,326.2,1304.2,317.3,1295.7,317.3z M1295.7,354.3c-7.5,0-13.5-7.7-13.5-17.2s6.1-17.3,13.5-17.3c7.5,0,13.5,7.7,13.5,17.3
			S1303.2,354.3,1295.7,354.3z"/>
	</g>
	<g>
		<ellipse class="st0" cx="1232.8" cy="358.7" rx="26.5" ry="33.9"/>
		<path class="st2" d="M1232.8,324.9c-7.7,0-14.6,4.2-19.5,10.9c-15.1,35.5,8.3,50.9,10.4,30.5c6.8,24.6,17.3,9.1,11.8-15.1
			c14.7,27.5,28.9,5.8,17-15.1C1247.6,329.2,1240.6,324.9,1232.8,324.9z"/>
		<path class="st4" d="M1232.8,323.6c-15.2,0-27.5,15.8-27.5,35.1s12.4,35.1,27.5,35.1c15.2,0,27.5-15.8,27.5-35.1
			S1248,323.6,1232.8,323.6z M1232.8,391.3c-14.1,0-25.6-14.6-25.6-32.6s11.5-32.6,25.6-32.6c14.1,0,25.6,14.6,25.6,32.6
			S1246.9,391.3,1232.8,391.3z"/>
	</g>
	<g>
		<path class="st0" d="M904.5,467.5c-62.7-68.6-95,81.1-28.8,60.6c-1,33,61.3,48.9,63.6-11.8C996.9,529.7,955.3,426.1,904.5,467.5z"
			/>
		<path class="st2" d="M940.4,459.9c-10.3-4.1-22.8-3.1-35.9,7.6c-34.2-37.5-59.4-9.8-64.4,19.7c1.1,10.9,5.5,20.3,14,24.6
			c7.9,2.5,21.6,12.5,27.5-7.5c-3.9,25.1,15.7,35.1,31.5,22.6c7.9-5,9.8-20.1,7.9-32.6c5.9,7.5,13.8,7.5,19.7,5
			c5.9-5,9.8-15.1,7.9-25.1C946.4,469.1,943.9,464,940.4,459.9z"/>
		<path class="st4" d="M928.9,456.4c-8.2,0-16.4,3.2-24.4,9.5c-11-11.8-21.7-17.8-31.9-17.8c-20.7,0-34.6,25.7-34.6,49.7
			c0,9.4,2.1,17.5,6.2,23.4c6.3,9.3,17,12.3,30.4,8.5c0.2,5.6,2.1,11.1,5.6,15.7c6.2,8.2,16.5,13.2,26.9,13.2
			c14.9,0,31.3-10.8,32.9-40.8c3.1,0.6,6,1,8.6,1h0c12.2,0,19.4-7.3,19.4-19.6C968.1,479.8,950.6,456.4,928.9,456.4z M948.7,516.3
			L948.7,516.3c-2.8,0-6-0.4-9.3-1.2l-1.1-0.3l-0.1,1.4c-1.1,29.4-16.7,39.9-31,39.9c-9.9,0-19.7-4.8-25.5-12.5
			c-3.5-4.6-5.2-10-5.1-15.5l0-1.7l-1.3,0.4c-13.3,4.1-23.6,1.5-29.6-7.4c-3.7-5.4-5.7-13-5.7-21.7c0-22.8,13.1-47.2,32.6-47.2
			c9.9,0,20.4,6,31.2,17.8l0.6,0.6l0.6-0.5c7.8-6.4,15.9-9.6,23.9-9.6c22.4,0,37.2,24.3,37.2,40.3
			C966.1,510,959.8,516.3,948.7,516.3z"/>
	</g>
	<g>
		<path class="st0" d="M733.6,473.7c-19.8,5.8-33.5,23.8-30.6,40.2c3,16.4,21.4,24.9,41.3,19c19.8-5.8,33.5-23.8,30.6-40.2
			C771.9,476.4,753.4,467.9,733.6,473.7z"/>
		<path class="st2" d="M749.9,472.1c-5.1-0.5-10.6-0.1-16.2,1.6c-17.4,5.1-30.1,19.6-30.9,34.1c3.2,7.3,7.6,13.8,11.7,19
			c3.9,2.5,3.9-7.5,7.9-10c0,2.5,3.9,5,2,7.5c5.9,0,3.9-7.5,5.9-10c2,10,13.8,10,17.7,2.5c2-5,0-12.5-2-17.6
			c3.9,7.5,11.8,2.5,11.8,0C762.9,487.4,757.5,477.9,749.9,472.1z"/>
		<path class="st4" d="M746,470.7c-4.1,0-8.4,0.6-12.6,1.9c-9.8,2.9-18.4,8.7-24.3,16.5c-6,7.9-8.5,16.8-7,25.2
			c2.4,13.1,14.4,21.9,29.9,21.9c4.1,0,8.4-0.6,12.6-1.9c9.8-2.9,18.4-8.7,24.3-16.5c6-7.9,8.5-16.8,7-25.2
			C773.5,479.4,761.5,470.7,746,470.7z M767.4,515.9c-5.6,7.4-13.9,13-23.4,15.8c-4.1,1.2-8.2,1.8-12.2,1.8
			c-14.6,0-25.8-8-27.9-19.9c-1.4-7.5,1-15.6,6.5-22.9c5.6-7.4,13.9-13,23.4-15.8c4.1-1.2,8.2-1.8,12.2-1.8c14.6,0,25.8,8,27.9,19.9
			C775.3,500.6,773,508.7,767.4,515.9z"/>
	</g>
	<g>
		<ellipse class="st0" cx="58.1" cy="234.5" rx="21.4" ry="27.3"/>
		<path class="st2" d="M60.9,207.5c-0.9-0.2-1.9-0.3-2.8-0.3c-11.8,0-21.4,12.2-21.4,27.3c0,4.9,1,9.5,2.8,13.5
			c2.6,4.9,16.7,14.2,22,0.3c2.7-7.1-2-15.1-5.9-22.6C74.5,239.7,80.4,216.3,60.9,207.5z"/>
		<path class="st2" d="M41.9,239.7c0.4-2.1,0.5-4.3-0.1-6.4C41.6,235.4,41.6,237.6,41.9,239.7z"/>
		<path class="st4" d="M58.1,206c-12.3,0-22.4,12.8-22.4,28.5c0,15.7,10,28.5,22.4,28.5c12.3,0,22.4-12.8,22.4-28.5
			C80.4,218.8,70.4,206,58.1,206z M58.1,260.6c-11.2,0-20.4-11.7-20.4-26c0-14.4,9.2-26,20.4-26c11.3,0,20.4,11.7,20.4,26
			C78.5,248.9,69.3,260.6,58.1,260.6z"/>
	</g>
	<g>
		<path class="st0" d="M87.6,298.5c-11.6-26.8-40.5-20.9-48.5,9c-64.2,4.8-22.4,129.6,35.2,47c17.2,31.4,45.9,13.8,27.7-13.6
			C142,342.4,121,260,87.6,298.5z"/>
		<path class="st2" d="M106.3,288.3c-5.4-0.6-11.8,2.2-18.7,10.2c-11.6-26.8-40.5-20.9-48.5,9c-19.2,1.4-28.9,13.6-31.6,27.7
			c-1.8,49.3,49.1,45.7,61.9,3.5c21.3,20.4,25.4,3,13.8-17.6c7.9,5,21.3,11.3,28.5-1.9C117.4,308.7,113.5,294.8,106.3,288.3z"/>
		<path class="st4" d="M104.9,287c-5.6,0-11.3,3.2-17.1,9.5c-5-10.5-13-16.4-22.1-16.4c-12.2,0-22.9,10.2-27.4,26.2
			c-24.7,2.2-33,22-32.6,38.5c0.4,18.8,12,39.2,30,39.2c8.7,0,22.3-4.8,38.4-27.4c5.9,10.2,13.6,16,21.3,16c5.7,0,10.2-3.3,12.2-8.8
			c2.2-6.1,0.8-13.8-3.7-21.5c15.3-0.6,20.8-13.9,20.8-25.4C124.8,302.4,116.8,287,104.9,287z M103,339.7L103,339.7
			c-0.3,0-0.7,0-1,0l-2.2-0.1l1.4,2.1c5.1,7.6,6.8,15.3,4.7,20.9c-1.7,4.6-5.6,7.3-10.4,7.3c-7.2,0-14.9-6-20.4-16.2l-0.7-1.3
			l-0.8,1.2c-12.7,18.2-25.7,27.8-37.8,27.8c-16.8,0-27.7-19.1-28.1-36.7c-0.4-16.2,7.7-34.2,31.4-36l0.7,0l0.2-0.8
			c4.1-15.3,14.2-25.3,25.7-25.3c8.8,0,16.4,6,21,16.5l0.6,1.4l0.9-1.1c5.7-6.6,11.3-9.9,16.7-9.9c10.7,0,17.9,14.1,17.9,27.2
			C122.8,327.9,117.6,339.7,103,339.7z"/>
	</g>
</g>
</svg>
