<?xml version="1.0" encoding="utf-8"?>
<!-- Generator: Adobe Illustrator 20.1.0, SVG Export Plug-In . SVG Version: 6.00 Build 0)  -->
<svg version="1.1" id="Layer_2" xmlns="http://www.w3.org/2000/svg" xmlns:xlink="http://www.w3.org/1999/xlink" x="0px" y="0px"
	 viewBox="0 0 835 1283" style="enable-background:new 0 0 835 1283;" xml:space="preserve">
<style type="text/css">
	.st0{fill:#EBAA8C;}
	.st1{fill:#EE8F7B;}
	.st2{fill:#E26A64;}
	.st3{fill:#ED776B;}
	.st4{fill:#F1D0C2;}
	.st5{fill:#F2D4C4;}
	.st6{fill:#4A5668;}
	.st7{fill:url(#SVGID_1_);}
	.st8{fill:#F0DBCE;}
	.st9{fill:#474747;}
	.st10{fill:#5E5E5E;}
	.st11{fill:#3D3D3D;}
	.st12{fill:#2E2E2E;}
	.st13{fill:url(#SVGID_2_);}
	.st14{fill:url(#SVGID_3_);}
	.st15{fill:#E89A77;}
	.st16{fill:url(#SVGID_4_);}
	.st17{fill:#440204;}
	.st18{fill:#3D0005;}
	.st19{fill:#2D0005;}
	.st20{fill:#FE9DB4;}
	.st21{fill:#FF7CA2;}
	.st22{fill:#E52E6B;}
	.st23{fill:#C0A4A1;}
	.st24{fill:#525460;}
	.st25{fill:#494B57;}
	.st26{fill:#3A3C48;}
	.st27{fill:#959595;}
	.st28{fill:#EA8D78;}
	.st29{fill:#ED766B;}
	.st30{fill:#8F939D;}
	.st31{fill:#B3B8C4;}
	.st32{fill:#7E818D;}
	.st33{fill:#686C75;}
	.st34{fill:#F0786A;}
	.st35{fill:#020000;}
	.st36{fill:#FFFFFF;}
	.st37{fill:none;}
	.st38{opacity:0.3;fill:#B3B8C4;}
</style>
<g>
	<g>
		<g>
			<path class="st0" d="M363.8,339.1c-1.5-1.9-3.7-4.8-5.8-8c0,0,4.7,2,9.8,8.1h0l0.5,0.6c10.2,13.3,27.4,21.8,47.6,23.2l0.2,0
				c19.8-1.6,36.8-10,46.9-23.2l0.5-0.6h0c4.6-5.2,9.8-8.1,9.8-8.1c-2.1,3.2-4.3,6.1-5.8,8c40.4-0.8,74.9-16.5,95.2-43.3
				c13.6-17.9,18.8-38.6,14.1-55.4c-7.1-23.2-19.9-38.9-38-46.7c-19.6-8.4-42.1-5.9-57.5-2.3c-11,2.6-20,6-25,8.2
				c11.8,3.7,33.4,12.6,40.5,29.5c13.7-0.1,24.1,4.1,29.5,12.1c1.1,1.7,2,3.5,2.7,5.4c14.4,2.2,30.7,6.2,46.5,13.3
				c0,0-31.5-7.8-45.7-10.1c0.9,5.2,0.1,10.9-2.4,16.9c0,0.1-0.1,0.2-0.2,0.4c11.4,4.6,23.9,11.2,36.4,21c0,0-26.3-13.6-37.7-18.2
				c-3.1,5.7-7.6,10.3-13.3,13.5c10.4,5.8,22.2,14.6,33.3,27.7c0,0-25.8-20.2-36.8-26c-0.9,0.4-1.9,0.8-2.9,1.1
				c-4.5,1.5-10.2,2.6-17.3,2.6c-0.9,0-1.9,0-2.8-0.1c-1.9,2.1-9.8,10.5-21.2,18.8c-11.2,8.2-28,17.5-45.4,17.5
				c-1.2,0-2.3,0-3.5-0.1l-0.1,0c-1,0.1-1.8,0-2.7,0c-17.5,0-34.5-9.3-46-17.5c-11.4-8.1-19.7-16.5-21.8-18.7c-1,0-1.9,0.1-2.8,0.1
				c-7.7,0-13.7-1.2-18.3-2.9c-0.7-0.3-1.5-0.6-2.2-0.9c-10.6,5.6-36.6,26-36.6,26c11.1-13.1,22.8-21.8,33.2-27.6
				c-5.8-3.2-10.3-7.8-13.3-13.6c-11.2,4.5-37.7,18.1-37.7,18.1c12.4-9.7,25-16.4,36.4-21c-0.1-0.1-0.1-0.3-0.2-0.4
				c-2.4-6-3.1-11.7-2.2-16.9c-14.2,2.3-45.8,10.1-45.8,10.1c15.9-7.1,32.2-11.1,46.7-13.4c0.7-2,1.6-3.9,2.8-5.6
				c5.4-7.8,15.8-11.9,29.3-11.8c5.5-10.7,17.2-19.5,34-25.6c2.8-1,5.5-1.9,8.1-2.6c-4.9-2.1-14.4-5.8-26-8.5
				c-15.7-3.7-38.5-6.3-58.3,2.2c-18,7.7-30.7,23.1-37.9,46c-4.7,16.7,0.5,37.4,14.1,55.3C288.9,322.7,323.5,338.3,363.8,339.1z"/>
			<path class="st1" d="M401.9,322.5c-16-1-46.4-16-57.3-30.3c-9.5,0.3-20.3-3.3-24.3-8.9c0.1,0,1,0.4,2.4,0.9
				c4.4,1.6,14.3,4.4,24,2.8c6.4,7.1,17.4,20.3,36.7,29.2C388.9,318.7,395,320.9,401.9,322.5z"/>
			<path class="st2" d="M383.4,316.2c-14.8-5.7-31.4-15.8-38.8-25.6c-8,0.3-16.9-2.3-21.9-6.4c4.4,1.6,14.3,4.4,24,2.8
				C353.1,294.2,364.1,307.4,383.4,316.2z"/>
			<path class="st1" d="M429.2,322.5c16-1,46.4-16,57.3-30.3c9.5,0.3,20.3-3.3,24.3-8.9c-0.1,0-1,0.4-2.4,0.9
				c-4.4,1.6-14.3,4.4-24,2.8c-6.4,7.1-17.4,20.3-36.7,29.2C442.2,318.7,436.1,320.9,429.2,322.5z"/>
			<path class="st2" d="M447.6,316.2c14.8-5.7,31.4-15.8,38.8-25.6c8,0.3,16.9-2.3,21.9-6.4c-4.4,1.6-14.3,4.4-24,2.8
				C477.9,294.2,467,307.4,447.6,316.2z"/>
			<path class="st1" d="M367.3,341.1L367.3,341.1c-43.9-0.7-71.3-17.7-83.3-27.3c-4.7-3.7-7-6.3-7.1-6.5
				c23.2,12.2,53.4,24.9,81.2,23.8C358,331.1,364.7,338,367.3,341.1z"/>
			<path class="st3" d="M367.3,341.1c-43.9-0.7-71.3-17.7-83.3-27.3c22.9,11.8,51.6,22.4,78.3,21.3
				C362.3,335.1,364.9,338.5,367.3,341.1z"/>
			<path class="st1" d="M577,271.9c-25.6,67.5-99,69.4-110.9,69.2c-1.1,0-1.7,0-1.7,0l4.4-4.9l0.3-0.3l4.3-4.8
				c115-10.7,105.7-93.1,92.3-118c0.9,1.2,0.9,2,2.4,4.3C575,227.8,585.4,248,577,271.9z"/>
			<path class="st3" d="M577,271.9c-25.6,67.5-99,69.4-110.9,69.2l2.7-4.9l0.2-0.3c0,0,0.1,0,0.1,0c111.2-7,116.1-91.1,99-118.5
				C575,227.8,585.4,248,577,271.9z"/>
			<path class="st1" d="M473.4,331.1c-0.6,0.4-1.7,1.7-3.3,3.7c-7.1,8.8-24.6,29.9-54.3,30c-29.6,0-43.2-18.7-52.6-29
				c-1.6-1.7-3.1-3.3-4.5-4.4c4.6,0.1,33.3,26.2,56.7,27.4C438.9,360,456.1,338.8,473.4,331.1z"/>
			<path class="st3" d="M470.1,334.8c-7.1,8.8-24.6,29.9-54.3,30c-29.6,0-43.2-18.7-52.6-29c9.5,6.5,30.4,24.3,50.8,24.9
				C439.4,361.4,454.1,343.4,470.1,334.8z"/>
			<path class="st4" d="M371.8,204.3l9.5-2.8c0,0-44.4-21.3-80.8-11.5c-36.4,9.8-53.9,53.1-49,70.4
				C258.8,228,283.3,170.7,371.8,204.3z"/>
			
				<ellipse transform="matrix(0.9398 -0.3418 0.3418 0.9398 -50.5962 113.9372)" class="st5" cx="298" cy="200.5" rx="13" ry="4.8"/>
			<path class="st4" d="M461.2,204.3l-9.5-2.8c0,0,44.4-21.4,80.8-11.5c33.5,9.1,46.9,39.9,48.7,67.9
				C576.4,220.6,549.7,170.7,461.2,204.3z"/>
			
				<ellipse transform="matrix(0.3418 -0.9398 0.9398 0.3418 163.6517 634.7425)" class="st5" cx="535" cy="200.5" rx="4.8" ry="13"/>
			<path class="st6" d="M573.9,900c-3.4,2.8-8,6.4-13,9.5c-0.5,4.4-1.1,8.8-1.7,13.1l1.1-1.5C560.4,920.9,568.7,909.7,573.9,900z"/>
			<linearGradient id="SVGID_1_" gradientUnits="userSpaceOnUse" x1="292.2642" y1="127.9834" x2="365.723" y2="200.2945">
				<stop  offset="0" style="stop-color:#1F1FFA"/>
				<stop  offset="0.4417" style="stop-color:#1717FA"/>
				<stop  offset="1" style="stop-color:#0606F9"/>
			</linearGradient>
			<path class="st7" d="M334.2,142.2c-4.9-0.3-9.1,1.4-12.4,5.2c-6.4,7.4-7.9,21.4-4.2,38.6c12.5-0.6,24.6,1.2,34.1,3.4
				c1,0.2,2,0.5,2.9,0.7c0.6-6.2,2.2-28.9-7.2-40.8C344.1,145.2,339.6,142.8,334.2,142.2z"/>
			<path class="st8" d="M593.4,900.9c-6.3,0-11.4-2.9-14.2-4.8c-3.3,7.8-10.2,18.1-14,23.4c13.7-4,24.3-13,29.9-18.7
				C594.6,900.9,594,900.9,593.4,900.9z"/>
			<path class="st8" d="M551.2,890.2c-0.1,7.5-4.9,18.2-7.3,23.1c9.9-1.6,21.6-10.3,28.2-15.8C567.1,898.5,559.6,898,551.2,890.2z"
				/>
			<path class="st9" d="M421.2,232.6c0.2,0,0.4,0,0.6,0c12.6-1,24.4-21.7,24.9-33.6c0-1.1-0.4-2.2-1.5-3.3c-3.9-4.1-14.7-7-26.2-7
				c-12.4,0-21.5,3.3-23.8,8.6c-3,6.8,1,14.6,3.7,18.6C404.7,225,414.9,232.6,421.2,232.6z"/>
			<path class="st10" d="M431.7,188.2c0,0-36.1-6.6-38.7,11.1c-2.3,15.7,13,27.2,14.2,28.1C399.7,213.8,387.8,188.8,431.7,188.2z"/>
			
				<ellipse transform="matrix(0.8785 -0.4778 0.4778 0.8785 -42.4823 218.7862)" class="st10" cx="408.9" cy="192.9" rx="5.8" ry="3.4"/>
			<path class="st11" d="M442.5,216.6c-11.1,21.5-24.3,17.9-32.8,12.5c-1.8-1.1-3.3-2.4-4.6-3.4c37,12.4,35.7-34.3,35.7-34.3
				c2.8,0.9,1.3,0.5,3,1.6C449.4,196.5,448.8,202.1,442.5,216.6z"/>
			<path class="st12" d="M442.5,216.6c-11.1,21.5-24.3,17.9-32.8,12.5c33.9,4.9,34.1-35,34.1-36.2
				C449.4,196.5,448.8,202.1,442.5,216.6z"/>
			<linearGradient id="SVGID_2_" gradientUnits="userSpaceOnUse" x1="300.5859" y1="94.4022" x2="352.8106" y2="219.5117">
				<stop  offset="0" style="stop-color:#FFFFFF"/>
				<stop  offset="1" style="stop-color:#656263"/>
			</linearGradient>
			<path class="st13" d="M314.5,186.2c-3.8-18.2-2.1-32.7,5-40.8c3.9-4.5,9.1-6.6,15-6.2c6.4,0.6,11.5,3.4,15.4,8.3
				c10.4,13.2,8.4,37.7,7.8,43.5c1.9,0.5,3.7,1.1,5.4,1.6c1.1-8.2,5.2-46-9.6-64.1c-5-6.1-11.8-9.4-20.1-9.7
				c-5.1,0-14.7,1.3-22.6,10.2c-10.4,11.7-14.1,31.8-11,59.7C304.6,187.4,309.6,186.6,314.5,186.2z"/>
			<linearGradient id="SVGID_3_" gradientUnits="userSpaceOnUse" x1="534.7321" y1="104.144" x2="468.1601" y2="223.5143">
				<stop  offset="0" style="stop-color:#FFFFFF"/>
				<stop  offset="1" style="stop-color:#656263"/>
			</linearGradient>
			<path class="st14" d="M473.7,190.3c-0.7-6.8-2.2-30.1,7.9-42.8c3.9-4.9,9.1-7.7,15.4-8.3c5.9-0.4,11.1,1.7,15,6.2
				c6.9,8,8.8,22.2,5.1,40.1c4.9,0.4,9.8,1.3,14.6,2.6c2.9-27.6-0.8-47.4-11-59c-7.9-8.9-17.5-10.2-22.6-10.2
				c-8.3,0.3-15.1,3.6-20.1,9.7c-14.4,17.6-10.9,54.1-9.7,63.4C470,191.4,471.8,190.9,473.7,190.3z"/>
			<path class="st15" d="M599,896.7c25-31.2,30.7-60.9,31.1-80.3c0.4-18.3-3.8-31.2-5-34.5c-3,0.8-6.8,1.3-11,1.3
				c-5.9,0-12.6-0.8-19.4-2.4c-20.5-4.8-37-15.6-45.9-29.9c-19.7,7.8-36.6,33.9-45.2,54.1c-6.6,15.6-8,26.1-6.5,29.7
				c0.7,1.5,3,3.2,5.9,4.3c3.3,1.2,7.9,2,11.6,0.7c0.8-6.5,4.4-11.8,9.6-14.2c3.7-1.7,7.5-1.6,10.2,0.3c17,10.1,4.1,32.8-2.7,45
				c-1.4,2.5-3,5.3-3.4,6.5c7.7,6.7,14.8,9.4,20.6,8c17.2-23.7,16.6-48.4,16.6-48.4c3.8,22.1-10.3,44.5-13.7,49.6
				c14.1,14.4,24.7,5.8,25.1,5.4l0.4-0.3c18.5-23.3,15.3-50.3,15.3-50.3c3.3,16.4-0.5,29.9-4.4,38.4c-2.9,6.3-6.1,10.8-7.9,13.1
				l-0.1,0.3c2.8,2.1,10.1,6.6,18.4,3.9C598.8,896.9,598.9,896.8,599,896.7z"/>
			
				<ellipse transform="matrix(0.5792 -0.8152 0.8152 0.5792 -417.6599 757.1382)" class="st5" cx="524.5" cy="783.1" rx="13" ry="4.8"/>
			<path class="st5" d="M565.6,836.9c0,0,2,27.1-16.1,50.6c2,1.5,5.3,5.1,10.5,7C551.5,887,573.9,859.1,565.6,836.9z"/>
			<linearGradient id="SVGID_4_" gradientUnits="userSpaceOnUse" x1="476.3378" y1="165.8359" x2="515.798" y2="165.8359">
				<stop  offset="0" style="stop-color:#1F1FFA"/>
				<stop  offset="0.4417" style="stop-color:#1717FA"/>
				<stop  offset="1" style="stop-color:#0606F9"/>
			</linearGradient>
			<path class="st16" d="M497.2,142.2c-5.4,0.5-9.9,2.9-13.2,7.2c-9,11.4-7.9,33-7.2,40.1c1.2-0.3,2.5-0.6,3.8-0.9
				c9.3-2.2,21.1-4,33.4-3.3c3.5-16.8,1.9-30.6-4.4-37.8C506.4,143.7,502.1,141.9,497.2,142.2z"/>
			<path class="st0" d="M524.6,265.7c-0.1,0.1-0.1,0.3-0.2,0.4c-0.5-0.2-1-0.4-1.5-0.6c-8.4-3.1-16-5-22.4-6.2
				c-17.2-3.3-28.7-2.2-29.2-2.2l0.3,3.1c0.3,0,22.2-1.9,50.2,8.2c0.4,0.2,0.8,0.3,1.3,0.5c-1.3,2.3-2.9,4.5-4.7,6.3
				c-2.5,2.6-5.6,4.8-9,6.5c-4.7-2.4-9-4.2-12.8-5.5c-14-5-23.9-5.1-24.3-5.1l0,3.1c0.2,0,14.7,0.2,33.3,9.1c-0.1,0-0.1,0-0.2,0.1
				c-14,4.8-40.5,5-87.3-21.3l-0.7-0.4l-0.8,0.4c-49.5,26.5-76.7,26.3-90.8,21.3c3.6-1.8,7-3.1,10-4.2c6.8-2.4,12.6-3.7,16.7-4.3
				c4.1-0.6,6.6-0.7,6.7-0.7l0-3.1c-0.4,0-10.2,0.1-24.3,5.1c-3.8,1.4-8.2,3.2-12.9,5.6c-6-2.9-10.6-7.3-13.6-12.9
				c8.7-3.2,16.5-5.3,23-6.5c16.8-3.2,28.4-2.2,28.5-2.2l0.3-3.1c-0.5,0-12-1.1-29.2,2.2c-6.7,1.3-14.9,3.4-23.9,6.8
				c-0.1-0.1-0.1-0.3-0.2-0.4c-2.3-5.8-2.9-11.4-1.8-16.2c30.8-4.4,55.2-1,55.5-0.9l0.4-3.1c-0.1,0-14-2-33.7-1.2
				c-6.2,0.3-13.4,0.8-21.2,1.9c0.5-1.2,1.1-2.3,1.8-3.4c4.9-7.1,14.8-10.8,27.7-10.4l1,0l0.4-0.9c10.2-21.5,44.2-28.9,54-30.6
				c-0.5,5.1,1.2,10.9,5.1,16.8c1,1.5,2.1,3,3.3,4.5c0,0,0,0,0,0c6.6,7.9,15.4,13.6,21.6,13.6c0.3,0,0.6,0,0.8,0
				c13.6-1.1,26-21.3,27.6-34.7c7.5,1.9,37.3,10.7,44.7,30.3l0.4,1l1.1,0c13.1-0.3,23,3.5,28,10.7c0.7,1,1.2,2,1.7,3.1
				c-1.1-0.1-2.2-0.3-3.2-0.4c-6.6-0.8-12.8-1.3-18.1-1.5c-19.7-0.8-33.6,1.2-33.7,1.2l0.4,3.1c0.3-0.1,23.4-3.3,53,0.6
				c0.9,0.1,1.8,0.2,2.7,0.4C527.6,254.3,527,259.9,524.6,265.7z"/>
			<path class="st1" d="M491.5,235.7c-3.1-17-39.7-32.7-40.3-28.9c-3.6,13.3-17.5,32.8-32.2,30.8c-11-1.4-17.3-11.6-19.4-15.5
				c6.6,7.9,15.4,13.6,21.6,13.6c0.3,0,0.6,0,0.8,0c13.6-1.1,26-21.3,27.6-34.7c7.5,1.9,37.3,10.7,44.7,30.3l0.4,1l1.1,0
				c13.1-0.3,23,3.5,28,10.7c0.7,1,1.2,2,1.7,3.1c-1.1-0.1-2.2-0.3-3.2-0.4C514.7,234.1,495.9,235.7,491.5,235.7z"/>
			
				<ellipse transform="matrix(0.9398 -0.3418 0.3418 0.9398 -49.9424 140.0079)" class="st4" cx="372.3" cy="211.7" rx="13" ry="4.8"/>
			<path class="st1" d="M508.8,283.4c0,0-2.1,1.2-6.5,2.3c-11.8,2.9-39.8,4.6-85.3-22.6c-47.4,27.6-77.1,25.3-89.3,22.3
				c-4.2-1-6.3-2.2-6.3-2.2c4.9-0.2,42.7,2.1,95.8-27.5C479.4,287,496.9,283.4,508.8,283.4z"/>
			<path class="st3" d="M502.3,285.8c-11.8,2.9-39.8,4.6-85.3-22.6c-47.4,27.6-77.1,25.3-89.3,22.3c13.6,0.1,46.3-1.7,89.3-25.7
				C468.9,285.8,489.9,286.3,502.3,285.8z"/>
			<path class="st4" d="M304.5,248.7c0,0-0.8-17.8,31.5-17.8c4.4-9.3,20.4-26.8,57-31.5c0.1,1.8,0.2,5.8,0.2,5.8
				s-42.8,3.9-53.8,30.1C321,235.7,309.9,239.1,304.5,248.7z"/>
			<path class="st17" d="M483.5,288c-3,3.2-8.8,9.1-16.5,15.2c-4.3,3.4-9.1,6.9-14.4,9.9c-11,6.4-23.7,11.2-36.4,10.3l-0.3,0
				c-10.2,0.8-20.4-2.1-29.8-6.5c-7.8-3.7-15-8.4-21.1-13.1c-8.1-6.2-14.4-12.3-17.6-15.6c9.1-0.8,20.1-3.2,33.3-8.1
				c10.6-3.9,22.6-9.4,36.3-16.9c14.9,8.6,27.8,14.5,39.1,18.5C466.7,285.3,475.8,287.3,483.5,288z"/>
			<path class="st18" d="M457.9,293.6c0,7.1-2,13.8-5.4,19.5c-4.4,2.6-9.1,4.9-13.9,6.7c-7.2,2.7-14.9,4.1-22.5,3.6l-0.3,0
				c-5.1,0.4-10.3-0.1-15.3-1.3c-5-1.2-9.8-3-14.5-5.2c-4.9-6.5-7.9-14.6-7.9-23.3c0-4.8,0.9-9.4,2.5-13.6c4.7-1.7,9.7-3.8,15-6.2
				c6.6-3,13.7-6.5,21.3-10.7c9.4,5.4,18.1,9.8,26,13.3c4.6,2,9,3.7,13.1,5.2C457.3,285.4,457.9,289.4,457.9,293.6z"/>
			<path class="st19" d="M446.1,294c0,10-2.8,19.1-7.5,25.8c-7.2,2.7-14.9,4.1-22.5,3.6l-0.3,0c-5.1,0.4-10.3-0.1-15.3-1.3
				c-5.6-6.9-9.2-16.9-9.2-28.1c0-7.4,1.6-14.4,4.3-20.2c6.6-3,13.7-6.5,21.3-10.7c9.4,5.4,18.1,9.8,26,13.3
				C445,281.7,446.1,287.7,446.1,294z"/>
			<path class="st20" d="M467,303.2c-4.3,3.4-9.1,6.9-14.4,9.9c-11,6.4-23.7,11.2-36.4,10.3l-0.3,0c-10.2,0.8-20.4-2.1-29.8-6.5
				c-7.8-3.7-15-8.4-21.1-13.1c13-6.5,34.9-14.7,51.4-6.4C433.6,289.6,453,297.1,467,303.2z"/>
			<path class="st21" d="M364.3,304.3c0,0,30.2-18,52.1-6.9c19-8.3,41.9,1.3,51,6.4c-4.4,2.6-5.6,3.9-7.4,5.4
				c-3.6-7.5-39.5-21.5-52.4-0.8c-0.1-2.9,0.6-5.1-1.8-7.8c-4.2-4.6-28.4-3.6-36,7.6C369,307.8,364.3,304.3,364.3,304.3z"/>
			<path class="st22" d="M467.3,302.5c-11-4.8-22.8-9.2-34.7-9.2c-4.9,0-9.6,0.8-13.8,2.3l0,0c-0.1,0-0.7,0.2-1.5,0.6
				c-0.2,0.1-0.5,0.2-0.7,0.3c-4.7-2.3-10.1-3.5-16.1-3.5c-13.1,0-26.6,5.4-35.7,10l-1.1,0.6l1,0.8c7.2,5.5,14.3,10,21.2,13.2
				c9.4,4.5,18.4,6.7,26.7,6.7c1.1,0,2.3,0,3.4-0.1l0.2,0c11.3,0.8,23.7-2.7,36.9-10.4c4.8-2.8,9.7-6.2,14.5-10l1-0.8L467.3,302.5z
				 M452.2,312.5c-12.9,7.5-25,11-36,10.2l0,0l-0.3,0c-9,0.7-18.9-1.5-29.4-6.5c-6.5-3.1-13.2-7.2-20-12.3
				c8.9-4.4,21.6-9.3,33.9-9.3c5.4,0,10.2,1,14.4,2.8c-1,0.6-2.1,1.3-3.2,2.2c-4.5,3.7-3.9,8.8-3.9,8.8c1.2-5.9,6.5-9.2,9.5-10.5
				c4.7-2,9.9-3.1,15.4-3.1c11.2,0,22.4,4,32.9,8.6C461,306.9,456.6,309.9,452.2,312.5z"/>
			<path class="st8" d="M527.5,880.6c-1.4,4.4-5.2,14.4-12.2,24.9c7.8-1.6,25.6-6.4,31.1-16.7C540.6,888.9,534.3,886.2,527.5,880.6z
				"/>
			<path class="st8" d="M280.2,890.2c-8.4,7.8-15.8,8.4-20.9,7.3c6.6,5.5,18.3,14.3,28.2,15.8C285.1,908.4,280.3,897.7,280.2,890.2z
				"/>
			<path class="st23" d="M269.2,895.3c0,0,9.2-3.8,12.6-8c0,8.7,2.5,21.5,8.6,27.8C282.3,911.9,280.6,893.1,269.2,895.3z"/>
			<path class="st24" d="M272.5,924.1l-2.9-0.6c-20.1-4.2-34.3-18.8-38.7-23.9l-0.1,0l-0.3-0.3c-0.1-0.1-0.2-0.3-0.3-0.4
				c-0.5-0.5-0.7-0.9-0.8-1l0,0c-25-31.7-30.8-61.8-31.2-81.5c-0.4-18.9,3.9-32,5.2-35.4c-0.5-0.2-0.9-0.5-1.3-0.8
				c-14.1-9.9-25.7-26.8-34.4-50.2c-7.1-19.1-12.3-42.7-15.5-70c-3.4-28.8-3.9-55.9-3.7-75.5c-4.5,12.9-13.1,38.8-21.2,70.6
				c-10.7,42-22.5,103-18.6,155.6c8.3,109.4,35.9,174.8,37,177.5l0.2,0.4l-0.1,0.4c-0.5,3.1-1.5,8.3-2.8,14.8
				c-3.9,19.9-9.7,50-10.5,67.6c-1.6,36.4,0.5,80.9,31.3,101.2c12.4,8.2,31,11.6,53.7,10c19.9-1.5,42-6.8,62.1-14.9
				c38.3-15.5,95.5-59.2,107.7-78.7C323.4,1058.6,284.8,1003.4,272.5,924.1z"/>
			<path class="st25" d="M389.6,1087.7c-0.1,0.2-0.2,0.4-0.4,0.6c-5.4,8.1-40.8,48.2-98.2,75c-17.7,8.2-37.4,15.2-59.1,19.6
				c45.2-12.1,146.8-66,111.2-124.6c0,0,2.8,2.4,7.3,5.9c6.9,5.4,17.9,13.4,29,19.1c0,0,0,0,0,0
				C382.9,1085,386.3,1086.5,389.6,1087.7z"/>
			<path class="st26" d="M389.2,1088.3c-6.4,12.2-48.1,52.1-105.5,78.8c41.2-23.3,94-65.1,68.8-100.9c-0.6-0.9,10.8,7.6,27,17
				c0,0,0,0,0,0C382.7,1085.1,386,1086.8,389.2,1088.3z"/>
			<path class="st25" d="M390.1,1087.7c-0.1,0.2-0.2,0.4-0.4,0.6c-5.4,8.1-40.8,48.2-98.2,75c-17.7,8.2-37.4,15.2-59.1,19.6
				c45.2-12.1,146.8-66,111.2-124.6c0,0,2.8,2.4,7.3,5.9c6.9,5.4,17.9,13.4,29,19.1c0,0,0,0,0,0
				C383.4,1085,386.8,1086.5,390.1,1087.7z"/>
			<path class="st26" d="M389.7,1088.3c-6.4,12.2-48.1,52.1-105.5,78.8c41.2-23.3,94-65.1,68.8-100.9c-0.6-0.9,10.8,7.6,27,17
				c0,0,0,0,0,0C383.2,1085.1,386.5,1086.8,389.7,1088.3z"/>
			<path class="st27" d="M151.5,633.5l-1.4-55.4c0,0-38.9,101.5-43.1,187.4c-5.3,107.4,32.6,211.3,37.3,223
				c-1.3,7-37.2,130.9,10.3,178.6c23.7,23.7,77.4,15.7,77.4,15.7c-46.4,0.8-93.8-8.8-91.3-92.9c1.9-64.3,17.5-99.6,17.5-99.6
				c-13.4-29.9-40.3-121.2-38.2-210.5C122.1,693.7,151.5,633.5,151.5,633.5z"/>
			<path class="st15" d="M162.1,1175c-8.4-5.5-14.8-12.8-19.6-21.1c-46,12.7-80.9,27.8-103.9,45c-22.8,17.1-25.6,30.5-25.9,34.2
				c-0.3,3.4,0.7,5.5,1.7,6c8.4,3.9,32.3-8.8,42.5-14.9c4.6-3.6,16.2-12.3,26.4-17.5c0,0-16.8,14.1-22.2,18.3l-0.9,0.9
				c-7.3,7-26.2,27-26.1,35.7c0,1,0.2,1.7,0.8,2.2c11,6.4,43.5-16.9,55.1-26.5l0.1,0.1c4.2-3.8,12-10.6,21.2-16.7
				c0,0-16.3,16.4-20.1,19.9c-4.1,4.7-11.4,15-7.8,20c1.1,1.5,2.5,2.3,4.4,2.4c7.2,0.5,18.7-8.6,26.7-16.7
				c2.2-2.6,12.6-14.8,21.1-22.3c0,0-14.9,19.8-18,23.5c-3.6,9.4-3.8,16.3-0.6,18.8c2.5,2,7.4,1.2,12.3-2.1
				c7.4-4.9,17.7-14,28.6-23.5c13.6-11.9,27.6-24.2,36.9-29.2c9.5-5.2,20.4-8.8,29.9-11.9c7.1-2.3,13.7-4.6,18.7-7
				c7.7-3.8,13.1-10.5,15.7-14.4c-17.1,4.9-35.3,8-52.1,8C189.6,1186,173.8,1182.7,162.1,1175z"/>
			<path class="st28" d="M261.2,1176c-0.3,0.6-0.6,1.4-1.1,2.2c-3.1,5.7-11.2,15.4-33.9,22.2c-26.1,7.7-47.5,20.6-73.3,45.9
				c-17.3,16.9-25.7,21.5-30.5,22.2c-2.4,0.3-4-0.3-5.3-0.8c16.4-0.6,41.6-43.9,62.4-57.7c12.8-8.5,38.1-14,36.2-26.5
				C215.8,1183.5,247.8,1181,261.2,1176z"/>
			<path class="st29" d="M260.1,1178.2c-3.1,5.7-11.2,15.4-33.9,22.2c-26.1,7.7-47.5,20.6-73.3,45.9c-17.3,16.9-25.7,21.5-30.5,22.2
				c-0.2-0.1-0.5-0.2-0.7-0.3c18.1-7,41.6-43.9,62.4-57.7c12.8-8.5,38.1-14,36.2-26.5C220.4,1184.1,245,1182.1,260.1,1178.2z"/>
			<path class="st28" d="M135.4,1223.8c-1.5,1.5-3,3.3-4.6,5.1c-13.5,15.1-31.8,38.1-43.7,35.7c-0.8-0.2-1.6-0.4-2.4-0.9
				C97.4,1260,125.7,1230.2,135.4,1223.8z"/>
			<path class="st29" d="M130.8,1228.8c-13.5,15.1-33.2,38.1-45.1,35.6C103.5,1257.6,120,1237.6,130.8,1228.8z"/>
			<path class="st28" d="M111.1,1220.5c0,0-1.5,1.4-4.1,3.8c0,0,0,0,0,0c-11.9,10.9-46.8,41.5-67.8,41.5c0,0,0,0,0,0
				c-1.7,0-3.3-0.2-4.8-0.6C51,1265.7,95.4,1227.9,111.1,1220.5z"/>
			<path class="st29" d="M107.1,1224.4c-11.9,10.9-46.8,41.5-67.8,41.5C56.1,1262.2,89.8,1234.8,107.1,1224.4z"/>
			<path class="st28" d="M83.3,1206.6c-0.2,0.2-2.8,2.1-6.5,4.8c-7.5,5.5-19.7,14.2-26.7,18.4c-24.7,14.6-37.1,14-38.5,7.6
				c-0.2-0.8-0.2-1.8,0-2.8c3.4,7,21.7-0.5,38.2-10.5C66,1214.1,82.7,1206.9,83.3,1206.6z"/>
			<path class="st29" d="M76.8,1211.4c-7.5,5.5-19.7,14.2-26.7,18.4c-24.7,14.6-37.1,14-38.5,7.6c8.9,4,21.8-1.6,37.7-11.3
				C59.7,1219.7,70.4,1214.4,76.8,1211.4z"/>
			<path class="st5" d="M135.4,1223.8c0,0-21.1,20.7-22.2,33.4c-0.5,7.2,1.2,13.1,9.3,11.5C110.8,1264,116.1,1253.1,135.4,1223.8z"
				/>
			<path class="st5" d="M111.1,1220.5c0,0-36.6,37.5-22.6,43.7c-5.5-0.5-13.9-6.4,0.9-24.6C97.5,1229.8,111.1,1220.5,111.1,1220.5z"
				/>
			<path class="st5" d="M83.3,1206.6c0,0-59.6,52.5-44.5,59.5c-5.2-0.9-13.6-4.4,8.3-28.6C65.1,1217.6,83.3,1206.6,83.3,1206.6z"/>
			<path class="st5" d="M145.4,1156.1l-2.8-4c0,0-133.6,36.1-131.1,84.6C16.8,1213.8,65.5,1177.5,145.4,1156.1z"/>
			
				<ellipse transform="matrix(0.9392 -0.3433 0.3433 0.9392 -397.0277 105.0457)" class="st5" cx="98.2" cy="1173.9" rx="13" ry="4.8"/>
			<path class="st30" d="M557.5,911.4c-11.3,95.6-59,157.9-141.8,185.2c-82.8-27.3-130.5-89.6-141.8-185.2c5.4,2.9,11,5.1,16.2,5.2
				l2.6,0l-1.3-2.3c-2.3-4.2-7.3-14.9-8.1-22.3c9,13.2,34.8,17.1,35.9,17.2l3.6,0.5l-2.2-3c-9.8-13.4-14-27.3-14.5-29.1
				c0-1.5-1.3-3.8-3.9-8.4c-8.8-15.6-17.1-32.9-3.8-40.8l0.1-0.1c1.8-1.3,4.5-1.3,7.2-0.1c4.5,2.1,7.4,6.8,7.9,12.6l0.1,0.9l0.1,0
				c6.3,16.7,16.8,24.5,17.3,24.8l1.4,1l0.9-1.5c7.3-12.4,4.9-31.5,4.5-34c0.4-7.2-3.2-18.8-7.3-28.4c-9.2-21.6-26.2-47.4-46.6-55.6
				c3-7.2,10.6-38.9,12.5-78.1c0.6-13.1,0.6-28.2-0.7-44.1c0,0,0,0,0,0c15.3-42,38.2-76.7,67.9-103.1c22.9-20.3,43.4-29.8,52-33.2
				c8.5,3.4,29.1,12.9,52.1,33.3c29.7,26.4,52.5,61.1,67.8,103l0,0c-1.4,15.9-1.4,31-0.7,44.1c1.9,39.2,9.4,70.9,12.5,78.1
				c-20.4,8.3-37.3,34-46.6,55.6c-4.1,9.6-7.7,21.2-7.3,28.4c-0.4,2.5-2.8,21.6,4.5,34l0.9,1.5l1.4-1c0.4-0.3,10.9-8.1,17.3-24.8
				l0.1,0l0.1-0.9c0.5-5.8,3.5-10.5,7.9-12.6c2.7-1.2,5.4-1.2,7.2,0.1l0.1,0.1c13.3,7.9,5,25.2-3.8,40.8c-2.6,4.6-3.9,6.9-3.9,8.4
				c-0.5,1.8-4.8,15.7-14.5,29.1l-2.2,3l3.6-0.5c1.2-0.2,27-4,35.9-17.2c-0.9,7.4-5.8,18.1-8.1,22.3l-1.3,2.3l2.6,0
				C546.5,916.5,552.1,914.4,557.5,911.4z"/>
			<path class="st31" d="M535.6,626c-1.1-1.9-59.9-125.1-119.5-123.4c-56.3,1.6-119.2,121.5-120.3,123.4
				c15.3-42,38.2-76.7,67.9-103.1c22.9-20.3,43.4-29.8,52-33.2c8.5,3.4,29.1,12.9,52.1,33.3C497.5,549.4,520.3,584.1,535.6,626z"/>
			<path class="st32" d="M559.3,908.7C559.3,908.7,559.3,908.7,559.3,908.7c-1.2,16.3-7.4,78.2-48.7,127.6
				c-41.3,49.5-94.6,61.9-94.6,61.9c-9.1-3.2-36.6-13.1-60.5-30.2c-4.3-3-8.4-6.3-12.3-9.8c98,31.8,163.2-14,195.5-141.6
				c0,0,4.4-0.8,9.6-2.5c3.6-1.2,7.6-2.9,10.7-5.2C559.1,908.8,559.2,908.8,559.3,908.7z"/>
			<path class="st33" d="M559.3,908.7c-1.2,16.3-7.4,78.1-48.7,127.6c-41.3,49.5-94.6,61.9-94.6,61.9c-9.1-3.2-36.6-13.1-60.5-30.2
				c104.6,31.2,167.9-32.1,192.8-154c0,0,0-0.1,0-0.1c0,0,5.1-2.1,10.7-5.1C559.1,908.9,559.2,908.8,559.3,908.7z"/>
			<path class="st32" d="M550,749.8c-13.6,2.1-29.8,21.7-36.3,32.3c-10.2,17.4-15.4,31.2-17.7,42.9c-3.4,17.7,0,30.4,2.9,42.6
				c-25.8-45.9,7.3-111.7,34.1-125.1c-20.6-65.4,4.5-120.2,4.5-120.2c-0.6,8.7-0.9,17-1,24.8C535.4,709.7,547.4,744.3,550,749.8z"/>
			<path class="st33" d="M550,749.8c-13.6,2.1-29.8,21.7-36.3,32.3c-10.2,17.4-15.4,31.2-17.7,42.9c2.7-35.8,24.5-70.6,43.2-79.9
				c-12.6-40-9.2-75.7-2.8-100.7C535.4,706.9,547.4,744.3,550,749.8z"/>
			<path class="st32" d="M281.6,749.8c13.6,2.1,29.8,21.7,36.3,32.3c10.2,17.4,15.4,31.2,17.7,42.9c3.4,17.7,0,30.4-2.9,42.6
				c25.8-45.9-7.3-111.7-34.1-125.1c20.6-65.4-4.5-120.2-4.5-120.2c0.6,8.7,0.9,17,1,24.8C296.1,709.7,284.2,744.3,281.6,749.8z"/>
			<path class="st33" d="M281.6,749.8c13.6,2.1,29.8,21.7,36.3,32.3c10.2,17.4,15.4,31.2,17.7,42.9c-2.7-35.8-24.5-70.6-43.2-79.9
				c12.6-40,9.2-75.7,2.8-100.7C296.2,706.9,284.2,744.3,281.6,749.8z"/>
			<path class="st8" d="M496.1,838.4c-0.3,6.4-0.1,16.8,3.7,24.6c2.8-2.5,9.2-9,13.8-19.9c-4,0.8-8.4,0-11.7-1.2
				C499.5,840.9,497.5,839.7,496.1,838.4z"/>
			<path class="st15" d="M792.7,1198.9c-22.9-17.2-57.9-32.3-103.9-45c-4.8,8.3-11.1,15.5-19.6,21.1c-11.7,7.7-27.5,10.9-44.6,10.9
				c-16.8,0-35-3.1-52.1-8c2.6,3.8,8.1,10.5,15.7,14.4c4.9,2.5,11.6,4.7,18.7,7c9.5,3.2,20.4,6.8,29.9,11.9
				c9.3,5.1,23.3,17.3,36.9,29.2c10.9,9.5,21.2,18.6,28.6,23.5c4.9,3.3,9.8,4.1,12.3,2.1c3.2-2.5,2.9-9.4-0.6-18.8
				c-3.1-3.7-17.8-23.5-17.8-23.5c8.3,7.4,18.2,19.1,20.7,22.2c7.8,8,19,16.9,26.2,16.9c0.2,0,0.4,0,0.6,0c1.9-0.1,3.3-0.9,4.4-2.4
				c3.9-5.4-4.9-17-8.7-21l0,0c-4.1-3.7-18.9-18.8-18.9-18.8c9.5,6.3,17.7,13.4,21.7,17.1c12.1,9.9,43.6,32.3,54.4,26
				c0.5-0.5,0.8-1.3,0.8-2.2c0-8.7-18.9-28.7-26.1-35.7l-0.9-0.9c-5.4-4.1-22.2-18.3-22.2-18.3c10.2,5.2,21.7,13.9,26.4,17.5
				c10.2,6.2,34.1,18.8,42.5,15c1-0.5,2-2.5,1.7-6C818.3,1229.4,815.5,1216,792.7,1198.9z"/>
			<path class="st28" d="M748.1,1206.6c0,0,28.4,21.8,42.8,27.6c14.4,5.8,27,10.1,29.5,1.7C807,1242.1,765.9,1214.2,748.1,1206.6z"
				/>
			<path class="st28" d="M570.1,1175.9c0.3,0.6,0.6,1.4,1.1,2.2c3.1,5.7,11.2,15.4,33.9,22.2c26.1,7.7,47.5,20.6,73.3,45.9
				c17.3,16.9,25.7,21.5,30.5,22.2c2.4,0.3,4-0.3,5.3-0.8c-16.4-0.6-41.6-43.9-62.4-57.7c-12.8-8.5-38.1-14-36.2-26.5
				C615.5,1183.5,583.5,1180.9,570.1,1175.9z"/>
			<path class="st29" d="M571.2,1178.2c3.1,5.7,11.2,15.4,33.9,22.2c26.1,7.7,47.5,20.6,73.3,45.9c17.3,16.9,25.7,21.5,30.5,22.2
				c0.2-0.1,0.5-0.2,0.7-0.3c-18.1-7-41.6-43.9-62.4-57.7c-12.8-8.5-38.1-14-36.2-26.5C610.9,1184,586.3,1182,571.2,1178.2z"/>
			<path class="st28" d="M696.2,1223.8c0,0,33.8,43.8,49.4,40.7C728.2,1254.3,696.2,1223.8,696.2,1223.8z"/>
			<path class="st29" d="M700.5,1228.8c13.5,15.1,33.2,38.1,45.1,35.6C727.9,1257.5,711.3,1237.6,700.5,1228.8z"/>
			<path class="st28" d="M796.9,1265.2c-1.5,0.4-3.1,0.6-4.8,0.6c0,0,0,0,0,0c-0.5,0-1.1,0-1.7-0.1c-20.7-1.5-53.4-29.7-65.5-40.8
				c-0.2-0.2-0.4-0.4-0.7-0.6c0,0,0,0,0,0c-2.6-2.4-4.1-3.8-4.1-3.8C735.9,1227.9,780.3,1265.7,796.9,1265.2z"/>
			<path class="st29" d="M790.4,1265.7c-20.7-1.5-53.4-29.7-65.5-40.8C741.5,1235,773,1260.4,790.4,1265.7z"/>
			<path class="st29" d="M754.6,1211.4c7.5,5.5,19.7,14.2,26.7,18.4c24.7,14.6,37.1,14,38.5,7.6c-8.9,4-21.8-1.6-37.7-11.3
				C771.6,1219.6,761,1214.4,754.6,1211.4z"/>
			<path class="st5" d="M696.2,1223.7c0,0,21.1,20.7,22.2,33.4c0.5,7.2-1.2,13.1-9.3,11.5C720.8,1263.9,715.5,1253,696.2,1223.7z"/>
			<path class="st5" d="M720.2,1220.5c0,0,36.6,37.5,22.6,43.7c5.5-0.5,13.9-6.4-0.9-24.6C733.9,1229.7,720.2,1220.5,720.2,1220.5z"
				/>
			<path class="st5" d="M748,1206.6c0,0,59.6,52.5,44.5,59.5c5.2-0.9,13.6-4.4-8.3-28.6C766.2,1217.5,748,1206.6,748,1206.6z"/>
			<path class="st5" d="M685.9,1156l2.8-4c0,0,133.6,36.1,131.1,84.6C814.5,1213.8,765.9,1177.5,685.9,1156z"/>
			
				<ellipse transform="matrix(0.3868 -0.9222 0.9222 0.3868 -633.8486 1392.1816)" class="st5" cx="729.9" cy="1172.7" rx="4.8" ry="13"/>
			<path class="st24" d="M667.6,1172.4c30.8-20.3,32.9-64.7,31.3-101.2c-0.8-17.7-6.6-47.7-10.5-67.6c-1.3-6.6-2.3-11.8-2.8-14.8
				l-0.1-0.4l0.2-0.4c1.2-2.7,28.7-68.1,37-177.5c4-52.6-7.9-113.6-18.6-155.6c-8.1-31.8-16.7-57.7-21.2-70.6
				c0.3,19.6-0.3,46.7-3.7,75.5c-3.2,27.4-8.4,50.9-15.5,70c-8.7,23.5-20.3,40.4-34.4,50.2c-0.4,0.3-0.8,0.5-1.3,0.8
				c1.3,3.5,5.5,16.5,5.2,35.4c-0.4,19.8-6.1,49.8-31.2,81.5l0,0c-0.1,0.1-0.4,0.4-0.8,1c-0.1,0.1-0.2,0.3-0.3,0.4l-0.3,0.3l-0.1,0
				c-4.5,5.1-18.7,19.7-38.7,23.9l-2.9,0.6c-12.3,79.2-50.9,134.4-114.9,164.6c12.2,19.5,69.4,63.2,107.7,78.7
				c20.2,8.2,42.2,13.5,62.1,14.9C636.6,1184.1,655.2,1180.6,667.6,1172.4z"/>
			<path class="st25" d="M687.4,988.5c4.8,27.9,20.6,92.2,8.6,144.5c-2.8,11.7-15.3,49.4-65.1,51.8c-6.1,0.3-12.7,0.1-20-0.8
				c30.1-6,78.3-6.3,73.1-105.9c-1-29.4-16-90.8-16-90.8s38-114.3,32.5-215.7c-5.4-101.4-22-123.4-22-123.4s4.1-46.8,3.1-71.6
				c3.1,9.3,6.5,19.5,9.9,30.3c14.4,44.9,30.3,101.8,33.2,162.5C728.4,844.9,706.7,934.5,687.4,988.5z"/>
			<path class="st26" d="M687.4,988.5c4.8,27.9,20.6,92.2,8.6,144.5c-2.8,11.7-15.3,49.4-65.1,51.8c17.8-7.1,66.5-9.2,61.4-108.8
				c-1-29.4-13.9-88.8-13.9-88.8s38-114.3,32.5-215.7c-5.4-101.4-30-149.4-30-149.4s-0.2-24.6,0.7-45.5
				c16.6,40.9,40.3,132.2,43.2,192.8C728.4,844.9,706.7,934.5,687.4,988.5z"/>
			<path class="st25" d="M442,1087.7c0.1,0.2,0.2,0.4,0.4,0.6c5.4,8.1,40.8,48.2,98.2,75c17.7,8.2,37.4,15.2,59.1,19.6
				c-45.2-12.1-146.8-66-111.2-124.6c0,0-2.8,2.4-7.3,5.9c-6.9,5.4-17.9,13.4-29,19.1c0,0,0,0,0,0
				C448.7,1085,445.3,1086.5,442,1087.7z"/>
			<path class="st26" d="M442.4,1088.3c6.4,12.2,48.1,52.1,105.5,78.8c-41.2-23.3-94-65.1-68.8-100.9c0.6-0.9-10.8,7.6-27,17
				c0,0,0,0,0,0C448.9,1085.1,445.6,1086.8,442.4,1088.3z"/>
			<path class="st15" d="M282.5,750.9c-8.8,14.3-25.4,25.1-45.9,29.9c-6.8,1.6-13.5,2.4-19.4,2.4c-4.3,0-8.1-0.4-11-1.3
				c-1.2,3.3-5.3,16.2-5,34.5c0.4,19.4,6.1,49.1,31.1,80.3c0.1,0.1,0.1,0.2,0.2,0.3c8.3,2.6,15.5-1.8,18.4-3.9l-0.1-0.3
				c-1.8-2.3-5-6.7-7.9-13.1c-3.8-8.5-7.7-22.1-4.4-38.4c0,0-2.1,32.6,15.2,50.3l0.4,0.4c0.4,0.4,11.1,9,25.1-5.4
				c-3.5-5.1-17.5-27.6-13.7-49.6c0,0,1.6,29.2,16.6,48.4c5.8,1.4,12.9-1.3,20.6-8c-0.4-1.3-2-4-3.4-6.5c-6.9-12.2-19.7-34.9-2.7-45
				c2.7-1.9,6.5-2,10.2-0.3c5.3,2.4,8.8,7.7,9.6,14.2c3.7,1.3,8.3,0.6,11.6-0.7c2.9-1.1,5.3-2.8,5.9-4.3c1.6-3.5,0.2-14.1-6.5-29.7
				C319.2,784.8,302.2,758.7,282.5,750.9z"/>
			<path class="st28" d="M253.8,893.9c-2.4,1.3-7.4,3.5-11.6,4.6c-1.3,0.3-2.5,0.6-3.5,0.6c10.1-5.1,3.3-13.1,0.2-23.1
				c-5-16-1.1-31.7-0.2-34.7c0,0-0.7,4.4-0.4,11.2C238.8,863.3,241.7,880.1,253.8,893.9z"/>
			<path class="st34" d="M240.5,876.5c-3.6-11.1-3.4-18.2-2.8-24.7c0.5,10.8,4,28.3,16.1,42.1c-2.4,1.3-7.4,3.5-11.6,4.6
				C249.4,893.4,243.5,885.8,240.5,876.5z"/>
			<path class="st28" d="M281.8,887.4c-1,1.2-7.1,6.3-13.3,8.3c-1.1,0.3-2.2,0.6-3.2,0.7c8.3-5.5,7.8-12.3,3.3-25
				c-7.7-21.8-2.8-34.4-2.8-34.4s-0.2,2.4,0,6.4C266.4,852.2,269.2,869.3,281.8,887.4z"/>
			<path class="st34" d="M281.8,887.4c-1,1.2-7.1,6.3-13.3,8.3c6.7-5.3,6.5-11.8,1.6-23.8c-5.3-12.8-5.2-22.7-4.3-28.5
				C266.4,852.2,269.2,869.3,281.8,887.4z"/>
			<path class="st28" d="M294.1,884.8c-1.7,0.8-3.4,1.6-5,2.2c9.4-7,6.1-15.1,3.3-21.6c-14.1-31,2.4-38.6,3.7-39.1c0,0,0.1,0,0.1,0
				c-16.9,14.1,6.5,46.8,8.5,50C305.2,878.8,299.8,882.1,294.1,884.8z"/>
			<path class="st34" d="M294.1,884.8c7.2-6.4,2.9-14.8,0.3-20.4c-12.3-25.9-3-35.3,1.6-38.1c0,0,0.1,0,0.1,0
				c-16.9,14.1,6.5,46.8,8.5,50C305.2,878.8,299.8,882.1,294.1,884.8z"/>
			<path class="st28" d="M336.4,833.2c0,3.4-2.7,5.4-7.6,6.9c-1.9,0.6-4.1,1.1-6.6,1.7c17.3-4.5,7.6-23-0.9-39.5
				c-14.7-30.2-35.6-40-37.9-38.4c-15.5,10.9-38.4,13.8-39.1,13.8c26.9-9.1,38.4-29.7,38.4-29.7s0.3,0.2,0.9,0.5
				c4.5,2.5,24.4,14.4,38,40.4C337,818.3,336.4,828.5,336.4,833.2z"/>
			<path class="st34" d="M336.4,833.2c0,3.4-2.7,5.4-7.6,6.9c10.4-7,1-25.9-6.6-40.7c-14.7-30.2-36.2-41.4-38.6-39.9
				c-15.2,10.7-36.5,17.2-37.8,17.6c23.3-7.9,35-24.4,37.7-28.6c4.5,2.5,24.4,14.4,38,40.4C337,818.3,336.4,828.5,336.4,833.2z"/>
			<path class="st5" d="M296.1,826.4c0,0,10.1-8.3,20.5,1.1c6.2,5.7,6.7,14.3,5.6,14.3c-2.6,0-6.5,0.5-7-1.6
				C314.7,838,313.1,823,296.1,826.4z"/>
			<path class="st5" d="M265.8,836.9c0,0,9.4,45.2,23.3,50.2c-6.5,1.2-6.4,0.6-7.8-0.7C279.3,884.7,264,859.2,265.8,836.9z"/>
			<path class="st5" d="M238.7,841.3c0,0,1.9,44.3,25.3,54.9c-7.2-0.5-10.2-2.2-11.4-3.5C251.5,891.4,233.9,871.1,238.7,841.3z"/>
			<path class="st5" d="M231.6,781.1c0,0-19.8,3.3-22.4,22.8c-3.4,26.4-2.8,59.3,27.9,95.6c-4.1,0.3-5.5-0.7-5.5-0.7
				s-47.1-51.9-26.8-118C213.4,782.4,231.6,781.1,231.6,781.1z"/>
			<path class="st8" d="M317.8,843.1c4.7,10.9,11.1,17.4,13.8,19.9c3.9-7.8,4.1-18.2,3.7-24.6c-1.4,1.4-3.4,2.6-5.9,3.5
				C326.2,843.1,321.8,843.9,317.8,843.1z"/>
			<path class="st23" d="M322.2,841.8l-6.8,0.1c0,0,5,15.2,16.8,23.5C330.7,859.9,320.1,851,322.2,841.8z"/>
			<path class="st8" d="M238,900.9c-0.6,0-1.1,0-1.7-0.1c5.6,5.6,16.2,14.6,29.9,18.7c-3.7-5.3-10.7-15.6-14-23.4
				C249.4,898,244.3,900.9,238,900.9z"/>
			<path class="st23" d="M241.3,899.2c0,0,9-2.5,12.5-5.4c1.9,7,11.1,21.9,15.7,27.9C260.3,917.6,253.6,896.1,241.3,899.2z"/>
			<path class="st8" d="M316.1,905.5c-7-10.4-10.7-20.5-12.2-24.9c-6.8,5.6-13.1,8.3-18.9,8.2C290.5,899.1,308.4,903.9,316.1,905.5z
				"/>
			<path class="st23" d="M294.5,885.1l10.5-7.7c0,0,5.5,20.1,13.9,29.8C310.1,904.4,305.2,880.7,294.5,885.1z"/>
			<path class="st23" d="M562.1,895.4c0,0-9.2-3.8-12.6-8c0,8.7-2.5,21.5-8.6,27.8C549.1,912,550.8,893.2,562.1,895.4z"/>
			<path class="st5" d="M577.6,894c2.4,1.3,7.4,3.5,11.6,4.6c1.3,0.3,2.5,0.6,3.5,0.6c-10.1-5.1-3.3-13.1-0.2-23.1
				c5-16,1.1-31.7,0.2-34.7c0,0,0.7,4.4,0.4,11.2C592.6,863.4,589.7,880.2,577.6,894z"/>
			<path class="st5" d="M537.3,884.9c1.7,0.8,3.4,1.6,5,2.2c-9.4-7-6.1-15.1-3.3-21.6c14.1-31-2.4-38.6-3.7-39.1c0,0-0.1,0-0.1,0
				c16.9,14.1-6.5,46.8-8.5,50C526.2,878.9,531.5,882.2,537.3,884.9z"/>
			<path class="st5" d="M495,833.3c0,3.4,2.7,5.4,7.6,6.9c-10.4-7,0-28.4,8.8-41.8c18.6-28,33.5-37.2,35.8-35.6
				c15.2,10.7,37.1,14,38.4,14.4c-23.3-7.9-35-24.4-37.7-28.6c-4.5,2.5-24.4,14.4-38,40.4C494.4,818.4,495,828.6,495,833.3z"/>
			<path class="st28" d="M535.3,826.4c-17.1-3.3-18.6,11.6-19.1,13.8c-0.4,1.7-3,1.7-5.4,1.7c-0.6,0-1.1,0-1.6,0
				c-1.1,0-0.6-8.6,5.6-14.3c7.9-7.2,15.7-4.1,19-2.2C534.7,826,535.3,826.4,535.3,826.4z"/>
			<path class="st34" d="M535.3,826.4c-17.1-3.3-18.6,11.6-19.1,13.8c-0.4,1.7-3,1.7-5.4,1.7c-0.2-2.4,1.1-8.8,6-13.3
				c6.6-6,13-4.9,16.9-3.2C534.7,826,535.3,826.4,535.3,826.4z"/>
			<path class="st28" d="M565.7,841.3c-0.3,21.2-13.8,43.6-15.6,45.2c-1.3,1.1-2.7,1.5-7.7,0.7c-0.5-0.1-1.1-0.2-1.7-0.3
				c15.2-4,24.9-50,24.9-50C565.7,838.4,565.7,839.9,565.7,841.3z"/>
			<path class="st34" d="M565.7,841.3c-0.3,21.2-13.8,43.6-15.6,45.2c-1.3,1.1-2.7,1.5-7.7,0.7C554.5,882.9,563,852.3,565.7,841.3z"
				/>
			<path class="st28" d="M578.8,892.8c-0.9,1-3.9,2.3-8.7,3c-1.3,0.2-2.6,0.3-4.1,0.5c23.3-10.6,26.7-54.8,26.7-54.8
				c0.2,1,0.3,1.9,0.4,2.8C596.3,872.4,579.8,891.5,578.8,892.8z"/>
			<path class="st34" d="M578.8,892.8c-0.9,1-3.9,2.3-8.7,3c17.9-11.8,22.3-44.6,23-51.5C596.3,872.4,579.8,891.5,578.8,892.8z"/>
			<path class="st28" d="M599.8,781.1c0,0,19.8,3.3,22.4,22.8c3.4,26.4,2.8,59.3-27.9,95.6c4.1,0.3,5.5-0.7,5.5-0.7
				s47.1-51.9,26.8-118C618,782.5,599.8,781.1,599.8,781.1z"/>
			<path class="st23" d="M509.2,841.9l6.8,0.1c0,0-5,15.2-16.8,23.5C500.7,860,511.3,851.1,509.2,841.9z"/>
			<path class="st23" d="M590.1,899.3c0,0-9-2.5-12.5-5.4c-1.9,7-11.1,21.9-15.7,27.9C571.1,917.6,577.8,896.2,590.1,899.3z"/>
			<path class="st23" d="M536.8,885.2l-10.5-7.7c0,0-5.5,20.1-13.9,29.8C521.3,904.5,526.1,880.8,536.8,885.2z"/>
			<path class="st6" d="M272.3,922.6c-0.6-4.3-1.2-8.7-1.7-13.1c-5.1-3.1-9.7-6.7-13-9.5c5.2,9.7,13.5,20.9,13.6,21.1L272.3,922.6z"
				/>
			<path class="st24" d="M170.5,728.8c8.5,22.9,19.7,39.3,33.3,48.8c4.1,2.8,16.7,3.9,32.2,0.3c20.7-4.9,37.2-16,45.2-30.6
				c2.8-6.4,10.5-38.5,12.3-77.2c1.6-34.5-0.9-83.7-22.6-121.5c0,0,18,18.5,24.2,70.6c15.4-39.9,37.8-73,66.6-98.5
				c24-21.3,45.6-30.9,53.7-34.1l0.3-0.1l0.3,0.1c8.2,3.1,29.7,12.8,53.8,34.1c28.7,25.5,51,58.6,66.4,98.4
				c5.8-47.3,24.2-70.6,24.2-70.6c-20.3,39-24.2,87-22.6,121.5c1.8,38.7,9.5,70.8,12.3,77.2c8,14.6,24.5,25.8,45.2,30.6
				c15.4,3.6,28.1,2.6,32.2-0.3c13.6-9.5,24.8-25.9,33.3-48.8c7-18.9,12.1-42.2,15.3-69.3c5.4-46.3,3.6-92,2.4-105.7
				c-5.4-62.9-26.6-88.8-45.2-111.6c-10.2-12.5-19.8-24.3-25.1-40.5c-9.9-30.1-8.6-56.3-6.8-96c1-20.8,2.1-44.4,2.1-74.8
				c0.1-71.4-19.2-125.6-57.5-161.2c-28.2-26.2-61.5-37.1-84.6-41.6c-25-4.9-43.5-3.6-43.7-3.6l-0.2,0c-0.2,0-18.9-1.3-44.1,3.8
				c-23.3,4.6-57,15.7-85.7,42.1c-38.8,35.6-59,89.7-60,160.6c0,30.4,1.1,54,2.1,74.8c1.9,39.7,3.1,65.9-6.8,96
				c-5.3,16.3-14.9,28-25.1,40.5c-18.7,22.9-39.8,48.7-45.2,111.6c-1.2,13.7-3,59.4,2.4,105.7C158.4,686.6,163.5,709.9,170.5,728.8z
				 M553.2,119.7c-56.4-40.6-97.7-6.9-97.7-6.9C477.5,57.1,537.5,87.2,553.2,119.7z M375.9,112.8c0,0-41.3-33.7-97.7,6.9
				C293.9,87.2,353.9,57.1,375.9,112.8z M251.6,239.7c7.5-23.8,20.7-39.3,39.5-47.3c1.8-0.8,4.6-2,6.5-2.6
				c-3.3-29.2,0.2-49.7,11.2-62.1c8.7-9.8,18.9-11.9,24.5-11.9l0.1,0c9.3,0.3,16.8,4,22.4,10.8c16.1,19.7,11.2,59.7,10.2,67
				c8.3,2.8,14.1,5.4,15.5,6.1c4.6-1.1,8.3-1.8,10.2-2.1c0.2-0.5,0.3-1,0.5-1.5c2.9-6.6,12.9-10.5,26.7-10.5
				c10.3,0,23.1,2.4,28.4,7.9c1.3,1.3,2,2.7,2.3,4.2c0.5,0.1,1.2,0.3,2.1,0.5c2-0.9,6.8-3.1,13.6-5.4c-1.2-8.7-5.5-47.2,10.3-66.4
				c5.6-6.8,13.1-10.5,22.4-10.8l0.1,0c5.6,0,16.2,1.5,24.9,11.3c11,12.3,14.9,33.2,11.7,61.9c1.8,0.6,3.6,1.3,5.3,2
				c18.9,8.1,32.3,24.5,39.7,48.7c5,17.7-0.4,39.4-14.6,58.1c-9.8,13-23.4,23.9-39.3,31.5c-17.9,8.6-38.4,13-60.9,13.1
				c-10.8,13.8-28.7,22.2-49.6,23.7l-0.3,0c-20.4-1.6-38.1-10.2-48.7-23.7c-22.5-0.1-43-4.5-60.9-13.1
				c-15.9-7.6-29.5-18.5-39.3-31.5C252.1,279,246.6,257.3,251.6,239.7z"/>
			<path class="st25" d="M565.2,297.7c-13.5,25.1-45,48.1-94.2,51.9c-33.4,30.3-69.1,36.5-104.2,1c-76.7-2.1-100.6-53-100.6-53
				c2.4,2.4,4.7,4.6,7.1,6.7c44.5,40.1,83.6,36.6,94,36.6c13.8,13.8,30.3,23.4,48.6,23.7c18.2,0.3,40.1-12,48.6-23.7
				c48.3-0.5,77.6-21.8,93.2-36.1C560.7,302.3,563.2,299.8,565.2,297.7z"/>
			<path class="st26" d="M557.7,305c-16.1,20.4-45,37.3-86.6,40.5c-33.4,30.3-69.1,36.5-104.2,1c-54-1.5-81.8-27.1-93.5-42.1
				c44.5,40.1,83.6,36.6,94,36.6c13.8,13.8,30.3,23.4,48.6,23.7c18.2,0.3,40.1-12,48.6-23.7C512.7,340.6,542,319.3,557.7,305z"/>
			<path class="st26" d="M361.2,140.3c0,0,9,24.5,2.8,55c5.4,1.5,13.9,4.4,16.3,6.5c4.6-0.8,9.5-2.3,12.6-2.3
				C370.3,197.3,379,158.8,361.2,140.3z"/>
			<path class="st26" d="M274.6,204.3c0,0,15.7-12.6,23.7-13.6c-0.7-5.8-4.5-35.3,4.3-51.4C290.4,157.9,295.6,184.4,274.6,204.3z"/>
			<path class="st26" d="M470.4,140.3c0,0-9,22.8-2.8,53.3c-5.4,1.5-12.8,4.9-15.1,7c-4.2-0.6-4.6-3.5-6.5-5.6
				C468.8,192.9,452.6,158.8,470.4,140.3z"/>
			<path class="st26" d="M557.1,203.8c0,0-15.7-12.6-23.7-13.6c0.7-5.8,4.5-35.3-4.3-51.4C541.2,157.4,536.1,183.9,557.1,203.8z"/>
			<path class="st26" d="M278.2,119.7c0,0,47.6-52.1,97.7-6.9C331.4,89.3,278.2,119.7,278.2,119.7z"/>
			<path class="st26" d="M553.2,119.7c0,0-47.6-52.1-97.7-6.9C500,89.2,553.2,119.7,553.2,119.7z"/>
			<path class="st25" d="M628.6,779c-4.3,2.2-10,2.9-15.4,3c-8.1,0.1-15.4-1.3-15.4-1.3c76.9-33.8,66.6-207.7,54.2-255.2
				c-20-76.6-76.4-59.3-64.5-214.3c10.2-133.1-13.3-198.1-23.9-225c8.9,11.8,16,23.9,21.8,36.3c23.2,50.7,22.5,108.1,17.8,184.9
				c-5.8,95.6,12.7,109.8,45.8,152.4c33.8,43.5,31.8,86.6,32.7,117C686.1,727.4,639.3,773.5,628.6,779z"/>
			<path class="st26" d="M628.6,779c-4.3,2.2-10,2.9-15.4,3c-3.4-0.4-5.6-0.8-5.6-0.8c76.9-33.8,67.9-211.5,57.8-259.5
				c-16.5-78.1-83.1-54.5-71.2-209.5c7.1-92.7-2.5-163.9-18.1-208c35.1,65.1,31.7,126.5,27,203.2c-5.8,95.6,12.7,109.8,45.8,152.4
				c33.8,43.5,31.8,86.6,32.7,117C686.1,727.4,639.3,773.5,628.6,779z"/>
			<path class="st27" d="M560.5,548.4c0,0-48.9,172.1,25.1,228.8c-34.8-15.7-45.8-29.4-49.2-110.9S560.5,548.4,560.5,548.4z"/>
			
				<ellipse transform="matrix(0.2177 -0.976 0.976 0.2177 -147.9735 1006.6616)" class="st27" cx="554" cy="595.6" rx="23.2" ry="10.1"/>
			
				<ellipse transform="matrix(0.9861 -0.1663 0.1663 0.9861 -112.3893 37.983)" class="st27" cx="170.6" cy="690.1" rx="10.1" ry="23.2"/>
			<path class="st25" d="M320.5,569.8c-1.9,3.8-4.4,8.8-7.2,14.2c-8.2,16.4-18.3,36.7-18.8,41.5c-1.7-13.5-5.4-38.8-13.5-58.9
				c-2.8-7-6.2-13.3-10.1-18.3c0.7,0.7,24.3,23.5,29.5,44.8C307,587.5,313,574.6,320.5,569.8z"/>
			<path class="st26" d="M313.4,584c-8.2,16.4-18.3,36.7-18.8,41.5c-1.7-13.5-3.4-36.2-15.8-62.8c7.3,8.7,16.6,26.3,19.6,38.6
				C302.7,597.5,307.5,590.1,313.4,584z"/>
			<path class="st25" d="M511.1,570.3c1.9,3.8,4.4,8.8,7.2,14.2c8.2,16.4,18.3,36.7,18.8,41.5c1.7-13.5,5.4-38.8,13.5-58.9
				c2.8-7,6.2-12.6,9.9-18.8c-0.7,0.7-24.1,24-29.3,45.3C524.7,588,518.7,575.1,511.1,570.3z"/>
			<path class="st26" d="M518.1,584.3c8.2,16.4,18.3,36.7,18.8,41.5c1.7-13.5,3.4-36.2,15.8-62.8c-7.3,8.7-16.6,26.3-19.6,38.6
				C528.8,597.8,524,590.3,518.1,584.3z"/>
			<path class="st25" d="M282.5,748c-5.5,9-17.8,22.4-38.4,29.7c-3.9,1.4-8,2.5-12.5,3.4c83.4-38.4,39.6-231.1,39.3-232.6
				c3.8,6,7.1,12.4,9.9,19.1C309.6,636.4,288.5,738.3,282.5,748z"/>
			<path class="st26" d="M282.5,748c-5.5,9-17.8,22.4-38.4,29.7c60.3-36.3,46.1-160.4,33-218.8C310.7,634.1,288.5,738.3,282.5,748z"
				/>
			<path class="st27" d="M498.9,38c0,0-45.5-18.6-100.8-14.4c-60.6,4.6-132.7,35.6-160.5,123.6c-22.2,81,0.5,204.9-13.4,245.6
				c-4.8,14-6.2,22.8-30.3,51.7c-25.7,30.8-49,70.1-44.6,150.1c6.7,121.8,30.6,200.9,82.2,186.5c-22.4-4.5-64.2-31.9-68.8-150.3
				c-4.6-118.4,20.6-148.9,54.7-196.1c51.1-69.7,1-140.4,31.8-278.3c12-54,52.8-97,106-114.9C402.8,25.5,459,31.1,498.9,38z"/>
			
				<ellipse transform="matrix(0.9057 -0.4239 0.4239 0.9057 8.1099 146.8533)" class="st27" cx="334.1" cy="55.2" rx="27.9" ry="12.8"/>
			<path class="st35" d="M305.5,329.2c17.9,8.6,38.4,13,60.9,13.1c10.6,13.5,28.3,22.1,48.7,23.7l0.3,0c20.9-1.4,38.8-9.9,49.6-23.7
				c22.5-0.1,43-4.5,60.9-13.1c15.9-7.6,29.5-18.5,39.3-31.5c14.1-18.7,19.6-40.4,14.6-58.1c-7.4-24.2-20.8-40.5-39.7-48.7
				c-1.8-0.8-3.5-1.4-5.3-2c3.2-28.8-0.8-49.6-11.7-61.9c-8.7-9.8-19.4-11.3-24.9-11.3l-0.1,0c-9.3,0.3-16.8,4-22.4,10.8
				c-15.7,19.2-11.5,57.7-10.3,66.4c-6.8,2.3-11.6,4.5-13.6,5.4c-0.8-0.2-1.5-0.4-2.1-0.5c-0.2-1.5-1-2.9-2.3-4.2
				c-5.3-5.5-18-7.9-28.4-7.9c-13.8,0-23.8,3.9-26.7,10.5c-0.2,0.5-0.4,1-0.5,1.5c-2,0.3-5.6,1-10.2,2.1c-1.5-0.7-7.2-3.3-15.5-6.1
				c1.1-7.3,6-47.3-10.2-67c-5.6-6.8-13.1-10.5-22.4-10.8l-0.1,0c-5.6,0-16.2,1.5-24.9,11.3c-11,12.4-15,33.5-11.7,62.7
				c-1.8,0.6-3.7,1.3-5.5,2c-18.9,8-32.2,24.1-39.7,47.9c-5,17.6,0.4,39.4,14.6,58.1C276,310.7,289.6,321.6,305.5,329.2z M478,128.5
				c5-6.1,11.8-9.4,20.1-9.7c5.1,0,14.7,1.3,22.6,10.2c10.3,11.6,14,31.4,11,59c-4.8-1.4-9.7-2.2-14.6-2.6c3.6-17.8,1.8-32-5.1-40.1
				c-3.9-4.5-9.1-6.6-15-6.2c-6.3,0.6-11.5,3.4-15.4,8.3c-10.1,12.8-8.6,36-7.9,42.8c-1.9,0.5-3.7,1.1-5.4,1.6
				C467.1,182.6,463.5,146.1,478,128.5z M514,185.2c-12.3-0.6-24.1,1.1-33.4,3.3c-1.3,0.3-2.6,0.6-3.8,0.9c-0.7-7-1.8-28.6,7.2-40.1
				c3.3-4.2,7.8-6.6,13.2-7.2c4.9-0.3,9.2,1.4,12.4,5.2C515.9,154.6,517.5,168.4,514,185.2z M395.1,197.4c2.3-5.3,11.5-8.6,23.8-8.6
				c11.5,0,22.2,2.9,26.2,7c1,1.1,1.5,2.2,1.5,3.3c-0.5,11.9-12.3,32.6-24.9,33.6c-0.2,0-0.4,0-0.6,0c-6.2,0-16.5-7.6-22.4-16.7
				C396.2,211.9,392.2,204.1,395.1,197.4z M391.1,200.9c-0.5,5.1,1.2,10.9,5.1,16.8c6.6,10.1,17.6,18.1,25,18.1c0.3,0,0.6,0,0.8,0
				c13.6-1.1,26-21.3,27.6-34.7c7.5,1.9,37.3,10.7,44.7,30.4l0.4,1l1.1,0c13.1-0.3,23,3.5,28,10.7c0.7,1,1.2,2,1.7,3.1
				c-7.9-1.1-15.1-1.6-21.4-1.9c-19.7-0.8-33.6,1.2-33.7,1.2l0.4,3.1c0.4-0.1,24.8-3.5,55.7,1c1.1,4.8,0.5,10.4-2,16.2
				c-0.1,0.1-0.1,0.3-0.2,0.4c-9-3.4-17.2-5.5-23.9-6.8c-17.2-3.3-28.7-2.2-29.2-2.2l0.3,3.1c0.3,0,22.9-2,51.4,8.7
				c-3.1,5.6-7.8,10-13.7,12.9c-4.7-2.4-9-4.2-12.8-5.6c-14.1-5-23.9-5.1-24.3-5.1l0,3.1c0.2,0,14.7,0.2,33.3,9.2
				c-0.1,0-0.1,0-0.2,0.1c-14,4.8-40.5,5-87.3-21.3l-0.7-0.4l-0.8,0.4c-49.5,26.5-76.7,26.3-90.8,21.3c3.6-1.8,7-3.1,10-4.2
				c13.5-4.8,23.2-5,23.4-5c0,0,0,0,0,0l0-3.1c-0.4,0-10.2,0.1-24.3,5.1c-3.8,1.4-8.2,3.2-12.9,5.6c-6-2.9-10.6-7.3-13.6-12.9
				c8.7-3.2,16.5-5.3,23-6.5c16.8-3.2,28.4-2.2,28.5-2.2l0.3-3.1c-0.5,0-12-1.1-29.2,2.2c-6.7,1.3-14.9,3.4-23.9,6.8
				c-0.1-0.1-0.1-0.3-0.2-0.4c-2.3-5.8-2.9-11.4-1.8-16.2c30.8-4.4,55.2-1,55.5-0.9l0.4-3.1c-0.1,0-14-2-33.7-1.2
				c-6.2,0.3-13.4,0.8-21.2,1.9c0.5-1.2,1.1-2.3,1.8-3.3c4.9-7.1,14.8-10.8,27.7-10.4l1,0l0.4-0.9
				C347.3,210,381.3,202.6,391.1,200.9z M482.1,288.7c-7.9,8.2-36.5,35.4-65.7,33.4l-0.3,0c-29,2.1-58.4-25-66.7-33.3
				c16-1.4,37.9-7.7,67.8-23.5C445.5,281,466.6,287.3,482.1,288.7z M310.8,129.1c7.9-8.9,17.5-10.2,22.6-10.2
				c8.3,0.3,15.1,3.6,20.1,9.7c14.8,18,10.7,55.9,9.6,64.1c-1.7-0.5-3.5-1.1-5.4-1.6c0.6-5.8,2.7-30.3-7.8-43.5
				c-3.9-4.9-9.1-7.7-15.4-8.3c-5.9-0.4-11.1,1.7-15,6.2c-7,8.1-8.8,22.6-5,40.8c-4.9,0.4-9.8,1.2-14.7,2.6
				C296.7,160.8,300.4,140.7,310.8,129.1z M354.6,190.2c-1-0.2-1.9-0.5-2.9-0.7c-9.5-2.2-21.5-4.1-34.1-3.4
				c-3.7-17.2-2.1-31.3,4.2-38.6c3.2-3.7,7.5-5.5,12.4-5.2c5.4,0.5,9.9,2.9,13.2,7.2C356.7,161.2,355.2,184,354.6,190.2z
				 M254.6,240.6c7.2-22.8,20-38.3,37.9-46c19.8-8.5,42.7-5.8,58.3-2.2c11.6,2.7,21,6.4,26,8.5c-2.6,0.7-5.3,1.6-8.1,2.6
				c-16.8,6.1-28.6,15-34,25.6c-13.5-0.2-23.9,4-29.3,11.8c-1.2,1.7-2.1,3.6-2.8,5.6c-14.5,2.2-30.8,6.2-46.7,13.4
				c0,0,31.6-7.8,45.8-10.1c-0.9,5.1-0.2,10.9,2.2,16.9c0.1,0.1,0.1,0.3,0.2,0.4c-11.4,4.6-23.9,11.2-36.4,21
				c0,0,26.5-13.7,37.7-18.1c3,5.7,7.5,10.3,13.3,13.6c-10.4,5.8-22.1,14.5-33.2,27.6c0,0,26-20.3,36.6-26c0.7,0.3,1.4,0.6,2.2,0.9
				c4.6,1.7,10.7,2.9,18.3,2.9c0.9,0,1.8,0,2.8-0.1c2.1,2.2,10.4,10.6,21.8,18.7c11.5,8.1,28.6,17.5,46,17.5c1,0,1.8,0.1,2.7,0
				l0.1,0c1.2,0.1,2.3,0.1,3.5,0.1c17.4,0,34.2-9.4,45.4-17.5c11.4-8.3,19.3-16.7,21.2-18.8c1,0,1.9,0.1,2.8,0.1
				c7.1,0,12.8-1.1,17.3-2.6c1-0.3,1.9-0.7,2.9-1.1c10.9,5.8,36.8,26,36.8,26c-11.1-13.2-22.9-21.9-33.3-27.7
				c5.7-3.2,10.2-7.8,13.3-13.5c11.4,4.5,37.7,18.2,37.7,18.2c-12.4-9.7-25-16.4-36.4-21c0.1-0.1,0.1-0.2,0.2-0.4
				c2.5-6,3.3-11.7,2.4-16.9c14.2,2.3,45.7,10.1,45.7,10.1c-15.8-7.1-32.1-11.1-46.5-13.3c-0.6-1.9-1.5-3.7-2.7-5.4
				c-5.4-7.9-15.9-12.2-29.5-12.1c-7.1-16.9-28.7-25.8-40.5-29.5c5-2.1,14-5.6,25-8.2c15.4-3.6,37.9-6.2,57.5,2.3
				c18.1,7.8,30.8,23.5,38,46.7c4.7,16.7-0.5,37.4-14.1,55.4c-20.2,26.8-54.8,42.4-95.2,43.3c1.5-1.9,3.7-4.8,5.8-8
				c0,0-5.2,2.8-9.8,8.1h0l-0.5,0.6c-10,13.1-27.1,21.5-46.9,23.2l-0.2,0c-20.2-1.4-37.4-9.8-47.6-23.2l-0.5-0.6h0
				c-5.1-6.1-9.8-8.1-9.8-8.1c2.1,3.2,4.3,6.1,5.8,8c-40.4-0.8-74.9-16.5-95.2-43.3C255.1,277.9,249.9,257.2,254.6,240.6z"/>
			<path class="st35" d="M375.9,112.8c-22-55.7-82-25.6-97.7,6.9C334.6,79.1,375.9,112.8,375.9,112.8z"/>
			<path class="st35" d="M794.5,1196.5c-23.1-17.3-58.2-32.6-104.2-45.3c12-23.1,12.8-53.6,11.6-80c-0.8-17.9-6.7-48.1-10.6-68.1
				c-1.2-6.2-2.2-11.2-2.7-14.3c2.7-6.3,29-71.5,37.1-178.1c4-53-7.9-114.4-18.7-156.6c-11.2-44-23.4-76.9-24.4-79.5
				c-0.4-13-1-20.9-1.1-21.1c-5.5-63.8-27-90.1-45.9-113.3c-10-12.2-19.4-23.8-24.6-39.5c-9.7-29.6-8.5-54.2-6.6-94.9
				c0.9-19.8,2.1-44.5,2.1-75c0.2-72.3-19.5-127.3-58.5-163.5c-28.7-26.7-62.7-37.8-86.1-42.4c-24.4-4.8-42.8-3.7-44.4-3.6
				c-1.5-0.1-20.1-1.1-44.7,3.8c-23.7,4.7-58,16-87.3,42.8c-39.5,36.2-60,91-61,162.9c0,30.5,1.2,55.2,2.1,75
				c1.9,40.7,3.1,65.3-6.6,94.9c-5.1,15.7-14.6,27.3-24.6,39.5c-18.9,23.2-40.4,49.5-45.9,113.3c0,0.2-0.7,8.1-1.1,21.1
				c-1,2.6-13.2,35.4-24.4,79.5c-10.7,42.2-22.7,103.6-18.7,156.6c8.1,106.6,34.4,171.8,37.1,178.1c-0.5,3.1-1.5,8.1-2.7,14.3
				c-3.9,20-9.8,50.2-10.6,68.1c-1.1,26.4-0.3,56.9,11.6,80c-46,12.8-81.1,28-104.2,45.3c-23.2,17.4-26.7,31.3-27.2,36.4
				c-0.4,4.4,1,7.9,3.5,9c5.2,2.4,14.7,0.4,28.2-5.9c3.1-1.5,6.1-3,8.8-4.4c-8,8.6-19.3,22.1-19.3,29.9c0,1.9,0.6,3.4,1.8,4.6
				l0.1,0.1l0.1,0.1c6.4,4,18.4,0.6,35.5-10c5.3-3.3,10.4-6.8,14.4-9.8c-3,5.1-5.3,11.4-2,15.8c1.6,2.2,3.9,3.5,6.6,3.7
				c0.3,0,0.5,0,0.8,0c8,0,18.1-8,24.3-13.8c-2.6,9.8-0.3,14.3,2.3,16.4c1.5,1.2,3.4,1.8,5.5,1.8c3.1,0,6.8-1.3,10.5-3.7
				c7.6-5.1,17.9-14.1,28.9-23.8c13.4-11.8,27.3-23.9,36.3-28.8c9.3-5,20-8.6,29.4-11.7c7.2-2.4,13.9-4.6,19.1-7.2
				c11.8-5.9,18.3-17.5,18.9-18.5c6-1.9,11.9-4,17.5-6.2c17.8-7.2,42.1-21.7,65.2-38.9c21.9-16.3,38.2-31.6,44.2-41.4
				c7.9,3.6,16.3,6.8,25,9.7l0.5,0.1l0.5-0.2c8.7-2.8,17-6.1,24.9-9.7c6,9.8,22.3,25.1,44.2,41.4c23,17.1,47.4,31.7,65.2,38.9
				c5.6,2.3,11.5,4.4,17.5,6.2c0.5,1,7.1,12.6,18.9,18.5c5.1,2.6,11.9,4.8,19.1,7.2c9.4,3.1,20.1,6.7,29.4,11.7
				c9,4.9,22.9,17,36.3,28.8c11,9.6,21.3,18.7,28.9,23.8c3.7,2.4,7.3,3.7,10.5,3.7c2.1,0,4-0.6,5.5-1.8c2.6-2.1,4.8-6.6,2.3-16.4
				c6.4,5.9,17,14.3,25.1,13.8c2.8-0.2,5-1.4,6.6-3.7c3.2-4.4,1-10.6-2-15.8c4,3,9.1,6.5,14.4,9.8c17.1,10.6,29,14,35.5,10l0.1-0.1
				l0.1-0.1c1.2-1.2,1.8-2.7,1.8-4.6c0-7.8-11.2-21.3-19.3-29.9c2.6,1.4,5.6,3,8.8,4.4c13.6,6.4,23.1,8.4,28.2,5.9
				c2.5-1.2,3.8-4.6,3.5-9C821.3,1227.7,817.7,1213.8,794.5,1196.5z M152.8,553.8c5.4-62.9,26.6-88.8,45.2-111.6
				c10.2-12.5,19.8-24.3,25.1-40.5c9.9-30.1,8.6-56.3,6.8-96c-1-20.8-2.1-44.4-2.1-74.8c1-70.9,21.2-124.9,60-160.6
				c28.7-26.4,62.4-37.4,85.7-42.1c25.2-5,43.9-3.8,44.1-3.8l0.2,0c0.2,0,18.7-1.3,43.7,3.6c23,4.5,56.4,15.4,84.6,41.6
				c38.3,35.6,57.6,89.9,57.5,161.2c0,30.4-1.1,54-2.1,74.8c-1.9,39.7-3.1,65.9,6.8,96c5.3,16.3,14.9,28,25.1,40.5
				c18.7,22.9,39.8,48.7,45.2,111.6c1.2,13.7,3,59.4-2.4,105.7c-3.2,27.1-8.3,50.4-15.3,69.3c-8.5,22.9-19.7,39.3-33.3,48.8
				c-4.1,2.8-16.7,3.9-32.2,0.3c-20.7-4.9-37.2-16-45.2-30.6c-2.8-6.4-10.5-38.5-12.3-77.2c-1.6-34.5,2.3-82.6,22.6-121.5
				c0,0-18.5,23.3-24.2,70.6c-15.4-39.8-37.7-72.9-66.4-98.4c-24-21.4-45.6-31-53.8-34.1l-0.3-0.1l-0.3,0.1
				c-8.1,3.1-29.7,12.7-53.7,34.1c-28.8,25.5-51.2,58.6-66.6,98.5c-6.2-52.2-24.2-70.6-24.2-70.6c21.6,37.8,24.2,87,22.6,121.5
				c-1.8,38.7-9.5,70.8-12.3,77.2c-8,14.6-24.5,25.8-45.2,30.6c-15.4,3.6-28.1,2.6-32.2-0.3c-13.6-9.5-24.8-25.9-33.3-48.8
				c-7-18.9-12.1-42.2-15.3-69.3C149.8,613.2,151.6,567.5,152.8,553.8z M560.8,909.5c5.1-3.1,9.7-6.7,13-9.5
				c-5.2,9.7-13.5,20.9-13.6,21.1l-1.1,1.5C559.8,918.3,560.4,914,560.8,909.5z M543.9,913.3c2.4-4.8,7.2-15.6,7.3-23.1
				c8.4,7.8,15.8,8.4,20.9,7.2C565.5,903,553.8,911.7,543.9,913.3z M579.2,896c2.8,2,7.9,4.8,14.2,4.8c0.6,0,1.1,0,1.7-0.1
				c-5.6,5.6-16.2,14.6-29.9,18.7C569,914.2,576,903.8,579.2,896z M580.4,893l0.1-0.3c1.8-2.3,5-6.7,7.9-13.1
				c3.8-8.5,7.7-22.1,4.4-38.4c0,0,3.2,27-15.3,50.3l-0.4,0.3c-0.5,0.4-11.1,9-25.1-5.4c3.5-5.1,17.5-27.6,13.7-49.6
				c0,0,0.5,24.7-16.6,48.4c-5.8,1.4-12.9-1.3-20.6-8c0.4-1.3,2-4,3.4-6.5c6.9-12.2,19.7-34.9,2.7-45c-2.7-1.9-6.5-2-10.2-0.3
				c-5.3,2.4-8.8,7.7-9.6,14.2c-3.7,1.3-8.3,0.6-11.6-0.7c-2.9-1.1-5.3-2.8-5.9-4.3c-1.6-3.5-0.2-14.1,6.5-29.7
				c8.6-20.2,25.6-46.4,45.2-54.1c8.8,14.3,25.4,25.1,45.9,29.9c6.8,1.6,13.5,2.4,19.4,2.4c4.3,0,8.1-0.4,11-1.3
				c1.2,3.3,5.3,16.2,5,34.5c-0.4,19.4-6.1,49.1-31.1,80.3c-0.1,0.1-0.1,0.2-0.2,0.3C590.5,899.6,583.2,895.2,580.4,893z
				 M546.4,888.8c-5.5,10.3-23.3,15.1-31.1,16.7c7-10.4,10.7-20.5,12.2-24.9C534.3,886.2,540.6,888.9,546.4,888.8z M513.7,843.1
				c-4.6,10.9-11.1,17.4-13.8,19.9c-3.9-7.8-4.1-18.2-3.7-24.6c1.4,1.4,3.4,2.6,5.9,3.5C505.2,843.1,509.6,843.9,513.7,843.1z
				 M334.3,834.7c-0.7,1.5-3,3.2-5.9,4.3c-3.3,1.2-7.9,2-11.6,0.7c-0.8-6.5-4.4-11.8-9.6-14.2c-3.7-1.7-7.5-1.6-10.2,0.3
				c-17,10.1-4.1,32.8,2.7,45c1.4,2.5,3,5.3,3.4,6.5c-7.7,6.7-14.8,9.4-20.6,8c-15-19.3-16.6-48.4-16.6-48.4
				c-3.8,22.1,10.3,44.5,13.7,49.6c-14.1,14.4-24.7,5.8-25.1,5.4l-0.4-0.4c-17.3-17.6-15.2-50.3-15.2-50.3
				c-3.3,16.4,0.5,29.9,4.4,38.4c2.9,6.3,6.1,10.8,7.9,13.1l0.1,0.3c-2.8,2.1-10.1,6.6-18.4,3.9c-0.1-0.1-0.2-0.2-0.2-0.3
				c-25-31.2-30.7-60.9-31.1-80.3c-0.4-18.3,3.8-31.2,5-34.5c3,0.8,6.8,1.3,11,1.3c5.9,0,12.6-0.8,19.4-2.4
				c20.5-4.8,37-15.6,45.9-29.9c19.7,7.8,36.6,33.9,45.2,54.1C334.4,820.6,335.8,831.2,334.3,834.7z M335.3,838.4
				c0.3,6.4,0.1,16.8-3.7,24.6c-2.8-2.5-9.2-9-13.8-19.9c4,0.8,8.4,0,11.7-1.2C331.9,840.9,333.9,839.7,335.3,838.4z M303.9,880.6
				c1.4,4.4,5.2,14.4,12.2,24.9c-7.8-1.6-25.6-6.4-31.1-16.7C290.8,888.9,297.1,886.2,303.9,880.6z M257.5,900c3.4,2.8,8,6.4,13,9.5
				c0.5,4.4,1.1,8.8,1.7,13.1l-1.1-1.5C271,920.9,262.7,909.7,257.5,900z M266.2,919.5c-13.7-4-24.3-13-29.9-18.7
				c0.6,0,1.2,0.1,1.7,0.1c6.3,0,11.4-2.9,14.2-4.8C255.4,903.8,262.4,914.2,266.2,919.5z M259.3,897.4c5.1,1.1,12.5,0.5,20.9-7.3
				c0.1,7.5,4.9,18.2,7.3,23.1C277.6,911.7,265.9,903,259.3,897.4z M243.1,1192.3c-4.9,2.5-11.6,4.7-18.7,7
				c-9.5,3.2-20.4,6.8-29.9,11.9c-9.3,5.1-23.3,17.3-36.9,29.2c-10.9,9.5-21.2,18.6-28.6,23.5c-4.9,3.3-9.8,4.1-12.3,2.1
				c-3.2-2.5-2.9-9.4,0.6-18.8c3.1-3.7,18-23.5,18-23.5c-8.4,7.4-18.9,19.7-21.1,22.3c-8,8.1-19.5,17.2-26.7,16.7
				c-1.9-0.1-3.3-0.9-4.4-2.4c-3.6-5,3.7-15.3,7.8-20c3.7-3.5,20.1-19.9,20.1-19.9c-9.2,6.1-21.3,16.6-21.3,16.6
				c-11.6,9.6-44.1,33-55.1,26.5c-0.5-0.5-0.8-1.3-0.8-2.2c0-8.7,18.9-28.7,26.1-35.7l0.9-0.9c5.4-4.1,22.2-18.3,22.2-18.3
				c-10.2,5.2-21.7,13.9-26.4,17.5c-10.2,6.2-34.1,18.8-42.5,14.9c-1-0.5-2-2.5-1.7-6c0.3-3.7,3.1-17.1,25.9-34.2
				c22.9-17.2,57.9-32.3,103.9-45c4.8,8.3,11.1,15.5,19.6,21.1c11.7,7.7,27.4,10.9,44.6,10.9c16.8,0,35-3.1,52.1-8
				C256.2,1181.8,250.8,1188.5,243.1,1192.3z M279.7,1167.5c-20.2,8.2-42.2,13.5-62.1,14.9c-22.7,1.7-41.3-1.8-53.7-10
				c-30.8-20.3-32.9-64.7-31.3-101.2c0.8-17.7,6.6-47.7,10.5-67.6c1.3-6.6,2.3-11.8,2.8-14.8l0.1-0.4l-0.2-0.4
				c-1.2-2.7-28.7-68.1-37-177.5c-4-52.6,7.9-113.6,18.6-155.6c8.1-31.8,16.7-57.7,21.2-70.6c-0.3,19.6,0.3,46.7,3.7,75.5
				c3.2,27.4,8.4,50.9,15.5,70c8.7,23.5,20.3,40.4,34.4,50.2c0.4,0.3,0.8,0.5,1.3,0.8c-1.3,3.5-5.5,16.5-5.2,35.4
				c0.4,19.8,6.1,49.8,31.2,81.5l0,0c0.1,0.1,0.4,0.4,0.8,1c0.1,0.1,0.2,0.3,0.3,0.4l0.3,0.3l0.1,0c4.5,5.1,18.7,19.7,38.7,23.9
				l2.9,0.6c12.3,79.2,50.9,134.4,114.9,164.6C375.2,1108.2,318.1,1151.9,279.7,1167.5z M415.7,1096.6
				c-82.8-27.3-130.5-89.6-141.8-185.2c5.4,2.9,11,5.1,16.2,5.2l2.6,0l-1.2-2.3c-2.3-4.2-7.3-14.9-8.1-22.3
				c9,13.2,34.8,17.1,36,17.2l3.6,0.5l-2.2-3c-9.8-13.4-14-27.3-14.5-29.1c-0.1-1.5-1.3-3.8-3.9-8.4c-8.8-15.6-17.1-32.9-3.8-40.8
				l0.1-0.1c1.8-1.3,4.5-1.3,7.2-0.1c4.5,2.1,7.5,6.8,7.9,12.6l0.1,0.9l0.1,0c6.3,16.7,16.8,24.5,17.3,24.8l1.4,1l0.9-1.5
				c7.3-12.4,4.9-31.5,4.5-34c0.4-7.2-3.2-18.8-7.3-28.4c-9.2-21.6-26.2-47.4-46.6-55.6c3-7.2,10.6-38.9,12.5-78.1
				c0.6-13.1,0.6-28.2-0.7-44.1c15.3-42,38.2-76.7,68-103.1c22.9-20.3,43.4-29.8,52-33.2c8.5,3.4,29.1,12.9,52.1,33.3
				c29.7,26.4,52.5,61.1,67.8,103c-1.4,15.9-1.4,31-0.7,44.1c1.9,39.2,9.4,70.9,12.5,78.1c-20.4,8.3-37.3,34-46.6,55.6
				c-4.1,9.6-7.7,21.2-7.3,28.4c-0.4,2.5-2.8,21.6,4.5,34l0.9,1.5l1.4-1c0.4-0.3,10.9-8.1,17.3-24.8l0.1,0l0.1-0.9
				c0.5-5.8,3.5-10.5,7.9-12.6c2.7-1.2,5.4-1.2,7.2,0.1l0.1,0.1c13.3,7.9,5,25.2-3.8,40.8c-2.6,4.6-3.9,6.9-3.9,8.4
				c-0.5,1.8-4.8,15.7-14.5,29.1l-2.2,3l3.6-0.5c1.2-0.2,27-4,35.9-17.2c-0.9,7.4-5.8,18.1-8.1,22.3l-1.2,2.3l2.6,0
				c5.2-0.1,10.8-2.2,16.2-5.2C546.2,1007,498.5,1069.3,415.7,1096.6z M551.7,1167.5c-38.3-15.5-95.5-59.2-107.7-78.7
				c64-30.2,102.6-85.4,114.9-164.6l2.9-0.6c20.1-4.2,34.3-18.8,38.7-23.9l0.1,0l0.3-0.3c0.1-0.1,0.2-0.3,0.3-0.4
				c0.5-0.5,0.7-0.9,0.8-1l0,0c25-31.7,30.8-61.8,31.2-81.5c0.4-18.9-3.9-32-5.2-35.4c0.5-0.2,0.9-0.5,1.3-0.8
				c14.1-9.9,25.7-26.8,34.4-50.2c7.1-19.1,12.3-42.7,15.5-70c3.4-28.8,3.9-55.9,3.7-75.5c4.5,12.9,13.1,38.8,21.2,70.6
				c10.7,42,22.5,103,18.6,155.6c-8.3,109.4-35.9,174.8-37,177.5l-0.2,0.4l0.1,0.4c0.5,3.1,1.5,8.3,2.8,14.8
				c3.9,19.9,9.7,50,10.5,67.6c1.6,36.4-0.5,80.9-31.3,101.2c-12.4,8.2-31,11.6-53.7,10C593.9,1181,571.9,1175.7,551.7,1167.5z
				 M816.9,1239.1c-8.4,3.9-32.3-8.8-42.5-15c-4.6-3.6-16.2-12.3-26.4-17.5c0,0,16.8,14.1,22.2,18.3l0.9,0.9
				c7.3,7,26.2,27,26.1,35.7c0,1-0.2,1.7-0.8,2.2c-10.8,6.3-42.3-16.1-54.4-26c-4-3.7-12.1-10.8-21.7-17.1c0,0,14.8,15.1,18.9,18.8
				l0,0c3.7,4,12.6,15.6,8.7,21c-1.1,1.5-2.5,2.3-4.4,2.4c-0.2,0-0.4,0-0.6,0c-7.2,0-18.5-8.9-26.2-16.9
				c-2.5-3.1-12.3-14.8-20.7-22.2c0,0,14.7,19.8,17.8,23.5c3.6,9.4,3.8,16.3,0.6,18.8c-2.5,2-7.4,1.2-12.3-2.1
				c-7.4-4.9-17.7-14-28.6-23.5c-13.6-11.9-27.6-24.2-36.9-29.2c-9.5-5.2-20.4-8.8-29.9-11.9c-7.1-2.3-13.7-4.6-18.7-7
				c-7.7-3.8-13.1-10.5-15.7-14.4c17.1,4.9,35.3,8,52.1,8c17.2,0,32.9-3.2,44.6-10.9c8.4-5.5,14.8-12.8,19.6-21.1
				c46,12.7,80.9,27.8,103.9,45c22.8,17.1,25.6,30.5,25.9,34.2C818.9,1236.6,818,1238.6,816.9,1239.1z"/>
			<path class="st35" d="M553.2,119.7c-15.7-32.5-75.7-62.6-97.7-6.9C455.5,112.8,496.8,79.1,553.2,119.7z"/>
		</g>
		<ellipse class="st35" cx="496.4" cy="167.8" rx="8.6" ry="19.1"/>
		<circle class="st36" cx="502.7" cy="153.6" r="4.3"/>
		<circle class="st36" cx="491.1" cy="182.1" r="3"/>
		<ellipse class="st35" cx="335.9" cy="167.8" rx="8.6" ry="19.1"/>
		<circle class="st36" cx="329.5" cy="153.6" r="4.3"/>
		<circle class="st36" cx="341.1" cy="182.1" r="3"/>
		
			<ellipse transform="matrix(0.1244 -0.9922 0.9922 0.1244 -641.6044 788.6624)" class="st27" cx="126.1" cy="757.9" rx="26.8" ry="12.1"/>
		
			<ellipse transform="matrix(0.9978 -6.652830e-02 6.652830e-02 0.9978 -54.6707 15.7748)" class="st5" cx="209.5" cy="828.7" rx="4.8" ry="13"/>
	</g>
	<rect x="-280.1" y="-50.2" class="st37" width="1391.7" height="1391.7"/>
	<path class="st3" d="M379.6,332.7c0,0,29.7,23.9,69.8-0.4C436.9,345.4,406.2,360.9,379.6,332.7z"/>
	<path class="st3" d="M521.7,268.4c0.4,0.2,0.8,0.3,1.3,0.5c-1.3,2.3-2.9,4.5-4.7,6.3C519.5,273.2,520.7,270.9,521.7,268.4z"/>
	<path class="st3" d="M524.6,265.7c-0.1,0.1-0.1,0.3-0.2,0.4c-0.5-0.2-1-0.4-1.5-0.6c1.7-4.7,2.8-9.6,1.8-13.5c-0.2-1-0.5-2-0.9-2.9
		c0.9,0.1,1.8,0.2,2.7,0.4C527.6,254.3,527,259.9,524.6,265.7z"/>
	<ellipse class="st38" cx="416.9" cy="802.4" rx="56.2" ry="195.4"/>
</g>
</svg>
